<?xml version="1.0" encoding="UTF-8" standalone="no"?>
<!-- Created with Inkscape (http://www.inkscape.org/) -->

<svg
   width="1058.4042"
   height="1062.6223"
   viewBox="0 0 280.0361 281.15216"
   version="1.1"
   id="svg5"
   inkscape:version="1.2.2 (b0a8486541, 2022-12-01)"
   sodipodi:docname="bfly.svg"
   inkscape:export-filename="bfly.png"
   inkscape:export-xdpi="51.637173"
   inkscape:export-ydpi="51.637173"
   xmlns:inkscape="http://www.inkscape.org/namespaces/inkscape"
   xmlns:sodipodi="http://sodipodi.sourceforge.net/DTD/sodipodi-0.dtd"
   xmlns:xlink="http://www.w3.org/1999/xlink"
   xmlns="http://www.w3.org/2000/svg"
   xmlns:svg="http://www.w3.org/2000/svg">
  <sodipodi:namedview
     id="namedview7"
     pagecolor="#ffffff"
     bordercolor="#000000"
     borderopacity="0.25"
     inkscape:showpageshadow="2"
     inkscape:pageopacity="0.0"
     inkscape:pagecheckerboard="0"
     inkscape:deskcolor="#d1d1d1"
     inkscape:document-units="mm"
     showgrid="false"
     inkscape:zoom="0.18685641"
     inkscape:cx="537.84615"
     inkscape:cy="1064.9889"
     inkscape:window-width="1920"
     inkscape:window-height="1011"
     inkscape:window-x="0"
     inkscape:window-y="32"
     inkscape:window-maximized="1"
     inkscape:current-layer="layer1"
     showguides="true" />
  <defs
     id="defs2">
    <pattern
       inkscape:collect="always"
       xlink:href="#Strips1_1"
       id="pattern8555"
       patternTransform="matrix(3.7953468,0,0,3.7953468,-69.010279,-63.597639)" />
    <pattern
       inkscape:collect="always"
       xlink:href="#Strips1_1"
       id="pattern3769"
       patternTransform="matrix(5.0676299,0,0,5.0676299,-97.90691,-165.86949)" />
    <pattern
       inkscape:collect="always"
       patternUnits="userSpaceOnUse"
       width="2"
       height="1"
       patternTransform="translate(0,0) scale(10,10)"
       id="Strips1_1"
       inkscape:stockid="Stripes 1:1">
      <rect
         style="fill:black;stroke:none"
         x="0"
         y="-0.5"
         width="1"
         height="2"
         id="rect2787" />
    </pattern>
  </defs>
  <g
     inkscape:label="Warstwa 1"
     inkscape:groupmode="layer"
     id="layer1"
     transform="translate(111.22344,102.49991)">
    <rect
       style="fill:#800000;fill-opacity:1;stroke:#000000;stroke-width:7.48101;stroke-dasharray:none;stroke-opacity:1"
       id="rect7053"
       width="272.55508"
       height="273.67114"
       x="-107.48293"
       y="-98.759407" />
    <rect
       style="fill:url(#pattern8555);fill-opacity:1;stroke:#000000;stroke-width:7.48101;stroke-dasharray:none;stroke-opacity:1"
       id="rect6982"
       width="272.55508"
       height="273.67114"
       x="-107.48293"
       y="-98.759407" />
    <circle
       style="fill:#800000;fill-opacity:1;stroke:#000000;stroke-width:9.48545;stroke-dasharray:none;stroke-opacity:1"
       id="circle3767"
       cx="29.191147"
       cy="37.170071"
       r="128.86887" />
    <circle
       style="fill:url(#pattern3769);fill-opacity:1;stroke:#000000;stroke-width:9.48533;stroke-dasharray:none;stroke-opacity:1"
       id="path237"
       cx="38.878895"
       cy="-28.292084"
       r="128.86887"
       transform="rotate(89.530582)" />
    <g
       id="g24193"
       transform="matrix(1.5069829,0,0,1.5069829,-100.8078,-177.49479)">
      <path
         id="path2690"
         style="stroke-width:0.306162"
         d="M 87.709885,151.37403 C 86.138033,159.0362 47.17213,173.79818 27.48895,166.55856 7.8057686,159.31894 5.8344903,128.58989 6.990147,119.87364 9.2106784,103.12583 17.394197,87.295601 39.259326,96.436086 c 19.484742,8.145394 50.02243,47.275774 48.450559,54.937944 z"
         sodipodi:nodetypes="sssss" />
      <ellipse
         style="fill:#000000;stroke-width:0.0966151"
         id="ellipse2861"
         cx="87.271248"
         cy="160.85226"
         rx="3.2931159"
         ry="35.87521" />
      <path
         id="path2863"
         style="stroke-width:0.198839"
         d="m 89.754635,124.84001 a 2.5066159,2.9530534 0 0 1 -2.506616,2.95305 2.5066159,2.9530534 0 0 1 -2.506616,-2.95305 2.5066159,2.9530534 0 0 1 2.506616,-2.95305 2.5066159,2.9530534 0 0 1 2.506616,2.95305 z" />
      <g
         id="rect3599"
         transform="rotate(-45.270213,0.03516377,0.42705499)">
        <path
           style="color:#000000;fill:#000000;-inkscape-stroke:none"
           d="m -25.152344,148.06836 v 0.7832 0.84571 c 10.829089,-7.27118 54.086214,10.97746 45.366206,4.5926 -5.638835,-4.03655 -36.574421,-9.3966 -45.366206,-6.22151 z"
           id="path4333"
           sodipodi:nodetypes="ccccc" />
      </g>
      <g
         id="g4339"
         transform="matrix(-0.70376414,-0.7104337,-0.7104337,0.70376414,174.64417,0.5109551)">
        <path
           style="color:#000000;fill:#000000;-inkscape-stroke:none"
           d="m -25.152344,148.06836 v 0.7832 0.84571 c 10.829099,-7.27119 54.086211,10.97747 45.366206,4.5926 -5.638835,-4.03655 -36.574421,-9.3966 -45.366206,-6.22151 z"
           id="path4337"
           sodipodi:nodetypes="ccccc" />
      </g>
      <path
         id="path7245"
         style="stroke-width:0.306162"
         d="m 86.45878,151.37403 c 1.571852,7.66217 40.53776,22.42415 60.22094,15.18453 19.68318,-7.23961 21.65446,-37.96868 20.4988,-46.68493 -2.22053,-16.7478 -10.40405,-32.578028 -32.26918,-23.43754 -19.48474,8.14539 -50.022431,47.27577 -48.45056,54.93794 z"
         sodipodi:nodetypes="sssss" />
      <path
         id="path7263"
         style="stroke-width:0.23567"
         d="m 88.093478,159.10032 c -1.279672,-5.5766 -33.002422,-16.32049 -49.026806,-11.05143 -16.024384,5.26906 -17.629233,27.63393 -16.688395,33.9777 1.807769,12.18919 8.4701,23.71057 26.270842,17.05804 15.862832,-5.92828 40.724042,-34.40772 39.444359,-39.98431 z"
         sodipodi:nodetypes="sssss" />
      <path
         id="path7265"
         style="stroke-width:0.23567"
         d="m 86.994952,159.3439 c 1.279661,-5.5766 33.002418,-16.32049 49.026798,-11.05143 16.02439,5.26906 17.62924,27.63393 16.6884,33.9777 -1.80777,12.18919 -8.4701,23.71057 -26.27084,17.05804 -15.86284,-5.92828 -40.724052,-34.40772 -39.444358,-39.98431 z"
         sodipodi:nodetypes="sssss" />
    </g>
    <path
       id="path43727"
       style="fill:#800000;fill-opacity:1;stroke-width:4.06967"
       d="m 82.491028,-3.912914 c 0,14.962783 15.795121,18.938625 31.786902,18.938625 15.99179,0 32.20991,-0.48689 32.20991,-15.44965379 0,-14.96274121 -10.92521,-31.42321721 -26.91701,-31.42321721 -15.99183,0 -37.079802,12.971509 -37.079802,27.934246 z"
       sodipodi:nodetypes="sssss" />
    <path
       id="path20337"
       style="fill:#800000;stroke-width:4.06967"
       d="m -20.615246,-3.912914 c 0,14.962783 -15.795116,18.938625 -31.786911,18.938625 -15.991802,0 -32.209921,-0.48689 -32.209921,-15.44965379 5e-6,-14.96274121 10.925233,-31.42321721 26.917034,-31.42321721 15.991795,0 37.079798,12.971509 37.079798,27.934246 z"
       sodipodi:nodetypes="sssss" />
    <path
       id="path21948"
       style="fill:#800000;stroke-width:4.01274"
       d="m -18.02983,37.559141 c 0,-14.547125 -15.795115,-18.412549 -31.786908,-18.412549 -15.991802,0 -32.209922,0.473379 -32.209922,15.020511 6e-6,14.547116 10.925234,30.550333 26.917035,30.550333 15.991793,0 37.079795,-12.611198 37.079795,-27.158295 z"
       sodipodi:nodetypes="sssss" />
    <path
       id="path23435"
       style="fill:#800000;stroke-width:2.42979"
       d="m -16.406977,7.5738018 c -7.599032,4.4213022 -4.85453,13.9109442 -0.03146,22.3293652 4.822998,8.418371 9.9615485,16.812035 17.5605767,12.390764 C 8.7211753,37.872648 13.785868,27.257541 8.9628554,18.839165 4.1398577,10.420748 -8.8078921,3.152534 -16.406917,7.5738018 Z"
       sodipodi:nodetypes="sssss" />
    <path
       id="path24181"
       style="fill:#800000;stroke-width:3.9784"
       d="M -8.4856709,99.124896 C -4.7848245,83.446865 -17.242234,75.192915 -30.850401,71.053923 c -13.608168,-4.139001 -27.529345,-7.826355 -31.23019,7.851646 -3.700847,15.677971 1.524647,35.752921 15.132815,39.891891 13.608156,4.139 34.761255,-3.99457 38.4621051,-19.672564 z"
       sodipodi:nodetypes="sssss" />
    <path
       id="path27845"
       style="fill:#800000;stroke-width:2.95041"
       d="m -14.590972,52.541876 c -8.190385,8.696991 -3.250168,18.617425 3.954987,26.321705 7.2051581,7.704274 14.7787917,15.234564 22.969181,6.537599 8.190385,-8.696961 12.278193,-23.527871 5.073042,-31.232144 -7.205158,-7.704277 -23.8068137,-10.324141 -31.99721,-1.62716 z"
       sodipodi:nodetypes="sssss" />
    <path
       id="path27849"
       style="fill:#800000;stroke-width:4.01274"
       d="m 79.905585,37.559141 c 0,-14.547125 15.795117,-18.412549 31.786915,-18.412549 15.99182,0 32.20994,0.473379 32.20994,15.020511 -4e-5,14.547116 -10.92526,30.550333 -26.91703,30.550333 -15.99183,0 -37.079825,-12.611198 -37.079825,-27.158295 z"
       sodipodi:nodetypes="sssss" />
    <path
       id="path27851"
       style="fill:#800000;stroke-width:2.42979"
       d="m 78.282732,7.5738018 c 7.599044,4.4213022 4.854545,13.9109442 0.0315,22.3293652 -4.823019,8.418371 -9.96155,16.812035 -17.560605,12.390764 C 53.15461,37.872648 48.089898,27.257541 52.912907,18.839165 57.735912,10.420748 70.683666,3.152534 78.282698,7.5738018 Z"
       sodipodi:nodetypes="sssss" />
    <path
       id="path27853"
       style="fill:#800000;stroke-width:3.9784"
       d="m 70.361449,99.124896 c -3.700877,-15.678031 8.756556,-23.931981 22.364734,-28.070973 13.608147,-4.139001 27.529347,-7.826355 31.230187,7.851646 3.70085,15.677971 -1.52463,35.752921 -15.13282,39.891891 -13.608159,4.139 -34.761243,-3.99457 -38.462101,-19.672564 z"
       sodipodi:nodetypes="sssss" />
    <path
       id="path27855"
       style="fill:#800000;stroke-width:2.95041"
       d="m 76.466739,52.541876 c 8.190396,8.696991 3.250164,18.617425 -3.95498,26.321705 -7.205188,7.704274 -14.778822,15.234564 -22.969207,6.537599 -8.190366,-8.696961 -12.278179,-23.527871 -5.073009,-31.232144 7.20514,-7.704277 23.806788,-10.324141 31.997196,-1.62716 z"
       sodipodi:nodetypes="sssss" />
  </g>
</svg>
