<?xml version="1.0" encoding="UTF-8" standalone="no"?>
<!-- Created with Inkscape (http://www.inkscape.org/) -->

<svg
   xmlns:dc="http://purl.org/dc/elements/1.1/"
   xmlns:cc="http://creativecommons.org/ns#"
   xmlns:rdf="http://www.w3.org/1999/02/22-rdf-syntax-ns#"
   xmlns:svg="http://www.w3.org/2000/svg"
   xmlns="http://www.w3.org/2000/svg"
   xmlns:xlink="http://www.w3.org/1999/xlink"
   xmlns:sodipodi="http://sodipodi.sourceforge.net/DTD/sodipodi-0.dtd"
   xmlns:inkscape="http://www.inkscape.org/namespaces/inkscape"
   width="246.35341mm"
   height="246.35341mm"
   viewBox="0 0 246.35341 246.3534"
   version="1.1"
   id="svg8"
   inkscape:version="0.92.3 (2405546, 2018-03-11)"
   sodipodi:docname="cerbe_almost_finalr.svg"
   inkscape:export-filename="C:\Users\user\Dropbox\Cerber\crbr2.png"
   inkscape:export-xdpi="250.25717"
   inkscape:export-ydpi="250.25717">
  <defs
     id="defs2">
    <color-profile
       name="Photoshop-5-Default-CMYK"
       xlink:href="C:\WINDOWS\system32\spool\drivers\color\Photoshop5DefaultCMYK.icc"
       id="color-profile816" />
    <color-profile
       name="sRGB-IEC61966-2.1"
       xlink:href="C:\WINDOWS\system32\spool\drivers\color\sRGB Color Space Profile.icm"
       id="color-profile818" />
  </defs>
  <sodipodi:namedview
     id="base"
     pagecolor="#ffffff"
     bordercolor="#666666"
     borderopacity="1.0"
     inkscape:pageopacity="0.0"
     inkscape:pageshadow="2"
     inkscape:zoom="0.49497475"
     inkscape:cx="386.38058"
     inkscape:cy="458.82363"
     inkscape:document-units="mm"
     inkscape:current-layer="layer1"
     showgrid="false"
     inkscape:window-width="1366"
     inkscape:window-height="705"
     inkscape:window-x="-8"
     inkscape:window-y="-8"
     inkscape:window-maximized="1"
     objecttolerance="1"
     guidetolerance="20"
     gridtolerance="1"
     showguides="false"
     fit-margin-top="0"
     fit-margin-left="0"
     fit-margin-right="0"
     fit-margin-bottom="0"
     inkscape:guide-bbox="true" />
  <metadata
     id="metadata5">
    <rdf:RDF>
      <cc:Work
         rdf:about="">
        <dc:format>image/svg+xml</dc:format>
        <dc:type
           rdf:resource="http://purl.org/dc/dcmitype/StillImage" />
        <dc:title />
      </cc:Work>
    </rdf:RDF>
  </metadata>
  <g
     inkscape:label="Layer 1"
     inkscape:groupmode="layer"
     id="layer1"
     transform="translate(45.312692,63.009077)">
    <circle
       style="fill:#ffff00;fill-opacity:1;stroke:#ffff00;stroke-width:1.22288811;stroke-linecap:round;stroke-miterlimit:4;stroke-dasharray:none;stroke-opacity:0.95454544"
       id="path911"
       cx="77.864014"
       cy="60.167629"
       r="122.56526" />
    <path
       inkscape:connector-curvature="0"
       id="path1482"
       d="M 183.43547,60.16763 A 105.57146,105.57146 0 0 1 77.864014,165.73908 105.57146,105.57146 0 0 1 -27.707443,60.16763 105.57146,105.57146 0 0 1 77.864014,-45.403827 105.57146,105.57146 0 0 1 183.43547,60.16763 Z"
       style="fill:#ff0000;fill-opacity:1;stroke:none;stroke-width:2.00507617;stroke-linecap:round;stroke-miterlimit:4;stroke-dasharray:none;stroke-opacity:0.95454544" />
    <g
       id="text929"
       style="font-style:normal;font-weight:normal;font-size:10.58333302px;line-height:1.25;font-family:sans-serif;letter-spacing:0px;word-spacing:0px;fill:#000000;fill-opacity:1;stroke:#000000;stroke-width:1;stroke-miterlimit:4;stroke-dasharray:none;stroke-opacity:0.95454544"
       transform="rotate(-76.758067,72.451947,82.842855)"
       aria-label="INOWROCLAWSKI KLUB FANTASTYKI ">
      <path
         inkscape:connector-curvature="0"
         id="path987"
         style="font-style:normal;font-variant:normal;font-weight:normal;font-stretch:normal;font-size:19.04999924px;font-family:PRIMETIME;-inkscape-font-specification:'PRIMETIME, Normal';font-variant-ligatures:normal;font-variant-caps:normal;font-variant-numeric:normal;font-feature-settings:normal;text-align:start;writing-mode:lr-tb;text-anchor:start;fill:#ffffff;fill-opacity:1;stroke:none;stroke-width:1;stroke-miterlimit:4;stroke-dasharray:none;stroke-opacity:0.95454544"
         d="m 25.494111,46.866731 -13.045438,-6.953252 1.872719,-3.513527 13.045437,6.953253 z" />
      <path
         inkscape:connector-curvature="0"
         id="path989"
         style="font-style:normal;font-variant:normal;font-weight:normal;font-stretch:normal;font-size:19.04999924px;font-family:PRIMETIME;-inkscape-font-specification:'PRIMETIME, Normal';font-variant-ligatures:normal;font-variant-caps:normal;font-variant-numeric:normal;font-feature-settings:normal;text-align:start;writing-mode:lr-tb;text-anchor:start;fill:#ffffff;fill-opacity:1;stroke:none;stroke-width:1;stroke-miterlimit:4;stroke-dasharray:none;stroke-opacity:0.95454544"
         d="m 33.639022,33.782595 -9.39493,-0.441934 6.404071,4.603033 -2.301517,3.202035 -11.988296,-8.616789 2.290398,-3.186566 9.467924,0.470939 -6.465946,-4.647507 2.312635,-3.217504 11.988296,8.616789 z" />
      <path
         inkscape:connector-curvature="0"
         id="path991"
         style="font-style:normal;font-variant:normal;font-weight:normal;font-stretch:normal;font-size:19.04999924px;font-family:PRIMETIME;-inkscape-font-specification:'PRIMETIME, Normal';font-variant-ligatures:normal;font-variant-caps:normal;font-variant-numeric:normal;font-feature-settings:normal;text-align:start;writing-mode:lr-tb;text-anchor:start;fill:#ffffff;fill-opacity:1;stroke:none;stroke-width:1;stroke-miterlimit:4;stroke-dasharray:none;stroke-opacity:0.95454544"
         d="m 42.913347,24.388223 q -1.197515,1.118027 -2.65787,1.647464 -1.460354,0.529436 -2.955149,0.491601 -1.507795,-0.05176 -2.94233,-0.667095 -1.42061,-0.628334 -2.525637,-1.811925 -1.105026,-1.183591 -1.634462,-2.643945 -0.515512,-1.473355 -0.450752,-2.967225 0.05176,-1.507795 0.680095,-2.928406 0.615334,-1.434535 1.812849,-2.552562 1.183591,-1.105026 2.656946,-1.620538 1.474279,-0.542436 2.982074,-0.490677 1.494794,0.03784 2.915405,0.66617 1.434535,0.615335 2.539561,1.798925 1.105027,1.183591 1.620539,2.656946 0.529436,1.460355 0.477676,2.968149 -0.06476,1.493871 -0.707019,2.927481 -0.628335,1.420611 -1.811926,2.525637 z M 34.814153,15.7132 q -0.612682,0.572014 -0.907811,1.316669 -0.294205,0.717729 -0.29316,1.472551 10e-4,0.754822 0.285264,1.505886 0.285143,0.724139 0.844156,1.322897 0.546013,0.584833 1.261894,0.932887 0.729806,0.335055 1.482779,0.387859 0.752973,0.05281 1.502189,-0.177563 0.75014,-0.257294 1.362822,-0.829308 0.612682,-0.572014 0.906887,-1.289743 0.295129,-0.744655 0.294084,-1.499477 -0.001,-0.754821 -0.299188,-1.492885 -0.284219,-0.751064 -0.830232,-1.335897 -0.559013,-0.598758 -1.275819,-0.919888 -0.715881,-0.348054 -1.468854,-0.400859 -0.752973,-0.0528 -1.503113,0.204489 -0.749216,0.230369 -1.361898,0.802382 z" />
      <path
         inkscape:connector-curvature="0"
         id="path993"
         style="font-style:normal;font-variant:normal;font-weight:normal;font-stretch:normal;font-size:19.04999924px;font-family:PRIMETIME;-inkscape-font-specification:'PRIMETIME, Normal';font-variant-ligatures:normal;font-variant-caps:normal;font-variant-numeric:normal;font-feature-settings:normal;text-align:start;writing-mode:lr-tb;text-anchor:start;fill:#ffffff;fill-opacity:1;stroke:none;stroke-width:1;stroke-miterlimit:4;stroke-dasharray:none;stroke-opacity:0.95454544"
         d="m 62.044945,10.641374 -2.759034,1.545274 -5.179439,-4.4136291 1.074129,6.7129221 -2.759034,1.545274 -11.958588,-10.2020726 3.723034,-2.0851888 6.05908,5.165522 -1.239081,-7.8650968 2.044344,-1.14499212 6.059081,5.16552202 -1.239081,-7.8650968 3.723034,-2.0851889 z" />
      <path
         inkscape:connector-curvature="0"
         id="path995"
         style="font-style:normal;font-variant:normal;font-weight:normal;font-stretch:normal;font-size:19.04999924px;font-family:PRIMETIME;-inkscape-font-specification:'PRIMETIME, Normal';font-variant-ligatures:normal;font-variant-caps:normal;font-variant-numeric:normal;font-feature-settings:normal;text-align:start;writing-mode:lr-tb;text-anchor:start;fill:#ffffff;fill-opacity:1;stroke:none;stroke-width:1;stroke-miterlimit:4;stroke-dasharray:none;stroke-opacity:0.95454544"
         d="M 76.953325,5.3202611 73.199251,1.6563818 70.804485,2.3584242 72.10895,6.7404233 68.196889,7.8872712 64.038226,-6.2985202 71.149402,-8.383211 q 0.511858,-0.1500549 1.100948,-0.1043816 0.58373,0.027393 1.173771,0.2117487 0.584683,0.1660755 1.123038,0.4449906 0.538356,0.2789151 0.954106,0.6136247 0.521027,0.422957 0.912838,1.0823117 0.404733,0.6357149 0.592302,1.275538 0.310828,1.0602782 0.08521,2.1190069 -0.225622,1.0587287 -0.920885,1.93750805 l 5.041993,4.87445425 z m -5.997278,-10.2322935 -2.211959,0.6484514 0.900329,3.0711507 2.21196,-0.6484514 q 0.329051,-0.096464 0.589387,-0.2918935 0.254977,-0.2137102 0.415395,-0.4791067 0.155059,-0.2836771 0.202637,-0.5954007 0.04758,-0.3117236 -0.04889,-0.6407755 -0.09646,-0.3290518 -0.304815,-0.565748 -0.208351,-0.2366962 -0.486669,-0.3734742 -0.283677,-0.1550587 -0.608323,-0.178997 -0.330004,-0.042219 -0.659056,0.054245 z" />
      <path
         inkscape:connector-curvature="0"
         id="path997"
         style="font-style:normal;font-variant:normal;font-weight:normal;font-stretch:normal;font-size:19.04999924px;font-family:PRIMETIME;-inkscape-font-specification:'PRIMETIME, Normal';font-variant-ligatures:normal;font-variant-caps:normal;font-variant-numeric:normal;font-feature-settings:normal;text-align:start;writing-mode:lr-tb;text-anchor:start;fill:#ffffff;fill-opacity:1;stroke:none;stroke-width:1;stroke-miterlimit:4;stroke-dasharray:none;stroke-opacity:0.95454544"
         d="M 88.898686,3.7238578 Q 87.267616,3.8775961 85.787965,3.4047602 84.308315,2.9319243 83.147902,1.9889064 81.985701,1.0269225 81.225751,-0.33653013 80.484767,-1.7017705 80.332816,-3.3138751 q -0.151951,-1.6121046 0.320885,-3.0917548 0.491802,-1.4814379 1.455574,-2.6246731 0.961983,-1.162201 2.327224,-1.903185 1.363452,-0.75995 2.994523,-0.913688 1.612105,-0.151951 3.093543,0.339851 1.498616,0.471048 2.660817,1.433032 1.160413,0.9430178 1.901397,2.3082581 0.75995,1.3634527 0.911901,2.9755574 0.151951,1.6121046 -0.339851,3.0935425 -0.472836,1.47965017 -1.43482,2.64185127 -0.963772,1.14323513 -2.347978,1.88600693 -1.36524,0.740984 -2.977345,0.8929346 z M 87.784978,-8.0919209 q -0.834502,0.078657 -1.523029,0.4879745 -0.67135,0.3885642 -1.131588,0.986843 -0.460239,0.5982788 -0.693975,1.3665528 -0.216558,0.7475205 -0.139689,1.5630558 0.07508,0.7965693 0.429289,1.509426 0.373173,0.7110691 0.937096,1.21281461 0.563922,0.5017455 1.297839,0.77698916 0.751096,0.25449006 1.585597,0.17583327 0.834502,-0.07865678 1.505851,-0.46722092 0.688528,-0.40931773 1.148766,-1.00759652 0.460239,-0.5982789 0.675009,-1.3647652 0.233737,-0.768274 0.158655,-1.5648434 -0.07687,-0.8155353 -0.448255,-1.5076384 -0.354207,-0.7128567 -0.91813,-1.2146022 -0.563922,-0.5017455 -1.315018,-0.7562356 -0.733917,-0.2752437 -1.568418,-0.1965869 z" />
      <path
         inkscape:connector-curvature="0"
         id="path999"
         style="font-style:normal;font-variant:normal;font-weight:normal;font-stretch:normal;font-size:19.04999924px;font-family:PRIMETIME;-inkscape-font-specification:'PRIMETIME, Normal';font-variant-ligatures:normal;font-variant-caps:normal;font-variant-numeric:normal;font-feature-settings:normal;text-align:start;writing-mode:lr-tb;text-anchor:start;fill:#ffffff;fill-opacity:1;stroke:none;stroke-width:1;stroke-miterlimit:4;stroke-dasharray:none;stroke-opacity:0.95454544"
         d="m 105.34358,3.8177338 q -1.62989,-0.1658196 -2.9896,-0.9168992 -1.33883,-0.7681035 -2.29218,-1.93740064 -0.932461,-1.18632112 -1.396249,-2.65048206 -0.461859,-1.4831131 -0.299896,-3.0750954 0.161963,-1.5919823 0.911115,-2.9327426 0.75108,-1.3597125 1.90142,-2.3149869 1.17123,-0.972298 2.63539,-1.436085 1.48504,-0.480812 3.11493,-0.314992 1.47827,0.150394 2.78691,0.838833 1.31057,0.669486 2.36253,1.8105197 l -3.30229,2.3448023 q -1.02017,-0.8888708 -2.23311,-1.0122714 -0.79599,-0.080982 -1.50912,0.1528402 -0.71313,0.2338219 -1.25987,0.7143511 -0.54674,0.4805293 -0.90237,1.1528376 -0.35369,0.6533561 -0.43082,1.4114429 -0.079,0.777039 0.13389,1.5071914 0.21487,0.7112001 0.65364,1.2919924 0.44069,0.5618401 1.07124,0.95151172 0.65143,0.37264757 1.44742,0.45362923 0.90971,0.09255046 1.72916,-0.24534377 0.83841,-0.33596609 1.50306,-1.03428078 l 2.86873,2.8577331 q -1.32157,1.3208206 -3.01348,1.9529203 -1.67104,0.6150757 -3.49045,0.4299748 z" />
      <path
         inkscape:connector-curvature="0"
         id="path1001"
         style="font-style:normal;font-variant:normal;font-weight:normal;font-stretch:normal;font-size:19.04999924px;font-family:PRIMETIME;-inkscape-font-specification:'PRIMETIME, Normal';font-variant-ligatures:normal;font-variant-caps:normal;font-variant-numeric:normal;font-feature-settings:normal;text-align:start;writing-mode:lr-tb;text-anchor:start;fill:#ffffff;fill-opacity:1;stroke:none;stroke-width:1;stroke-miterlimit:4;stroke-dasharray:none;stroke-opacity:0.95454544"
         d="m 113.34663,4.4851303 4.07508,-14.2100281 3.93706,1.1290487 -3.06682,10.6941448 7.47126,2.1425668 -1.00827,3.5158832 z" />
      <path
         inkscape:connector-curvature="0"
         id="path1003"
         style="font-style:normal;font-variant:normal;font-weight:normal;font-stretch:normal;font-size:19.04999924px;font-family:PRIMETIME;-inkscape-font-specification:'PRIMETIME, Normal';font-variant-ligatures:normal;font-variant-caps:normal;font-variant-numeric:normal;font-feature-settings:normal;text-align:start;writing-mode:lr-tb;text-anchor:start;fill:#ffffff;fill-opacity:1;stroke:none;stroke-width:1;stroke-miterlimit:4;stroke-dasharray:none;stroke-opacity:0.95454544"
         d="m 134.90178,12.622017 0.20409,-2.166531 -4.09637,-1.9872313 -1.57526,1.5013497 -3.75358,-1.8209356 11.37134,-10.9140146 3.13655,1.5216037 -1.53319,15.6866951 z m 1.36567,-9.7547479 -2.76719,2.9981086 2.10817,1.0227173 z" />
      <path
         inkscape:connector-curvature="0"
         id="path1005"
         style="font-style:normal;font-variant:normal;font-weight:normal;font-stretch:normal;font-size:19.04999924px;font-family:PRIMETIME;-inkscape-font-specification:'PRIMETIME, Normal';font-variant-ligatures:normal;font-variant-caps:normal;font-variant-numeric:normal;font-feature-settings:normal;text-align:start;writing-mode:lr-tb;text-anchor:start;fill:#ffffff;fill-opacity:1;stroke:none;stroke-width:1;stroke-miterlimit:4;stroke-dasharray:none;stroke-opacity:0.95454544"
         d="m 149.66536,23.000902 -2.47858,-1.963871 2.11176,-6.468938 -5.79977,3.546792 -2.47858,-1.963871 4.88653,-14.9402816 3.34459,2.6500432 -2.47256,7.5684574 6.8026,-4.137598 1.83654,1.4551577 -2.47255,7.5684583 6.8026,-4.137599 3.34458,2.650043 z" />
      <path
         inkscape:connector-curvature="0"
         id="path1007"
         style="font-style:normal;font-variant:normal;font-weight:normal;font-stretch:normal;font-size:19.04999924px;font-family:PRIMETIME;-inkscape-font-specification:'PRIMETIME, Normal';font-variant-ligatures:normal;font-variant-caps:normal;font-variant-numeric:normal;font-feature-settings:normal;text-align:start;writing-mode:lr-tb;text-anchor:start;fill:#ffffff;fill-opacity:1;stroke:none;stroke-width:1;stroke-miterlimit:4;stroke-dasharray:none;stroke-opacity:0.95454544"
         d="m 157.59018,32.103073 q -0.93265,-1.156743 -1.57158,-2.525842 -0.6418,-1.342311 -0.9894,-2.774998 -0.0239,-0.02966 -0.0603,-0.196129 -0.0215,-0.178426 0.008,-0.20234 0.0148,-0.01196 0.16647,-0.03634 0.15164,-0.02438 0.37168,-0.05497 0.23487,-0.04255 0.52332,-0.07935 0.30328,-0.04876 0.60655,-0.09752 0.61852,-0.08269 1.16862,-0.159165 0.55011,-0.07648 0.78498,-0.119024 0.0813,0.252576 0.12097,0.514236 0.24527,1.123664 0.66851,2.103843 0.45002,0.983052 1.1794,1.887685 0.20327,0.25211 0.44529,0.521924 0.2688,0.272687 0.54909,0.438225 0.28029,0.165538 0.57783,0.170353 0.32432,0.0077 0.66541,-0.267325 0.16313,-0.131528 0.21002,-0.316165 0.0617,-0.196594 0.0431,-0.401807 -0.004,-0.21717 -0.0492,-0.425256 -0.0454,-0.208086 -0.10854,-0.377428 -0.13246,-0.407087 -0.3362,-0.781177 -0.20373,-0.374089 -0.39264,-0.760136 -0.24294,-0.513771 -0.48876,-1.000755 -0.24582,-0.486983 -0.43806,-0.968221 -0.20421,-0.496068 -0.36966,-0.974433 -0.13867,-0.475493 -0.19698,-0.942366 -0.12857,-0.948576 0.19823,-1.848313 0.3536,-0.896863 1.42136,-1.757775 0.37075,-0.298927 0.80129,-0.523704 0.45732,-0.221905 0.92994,-0.333787 0.94524,-0.223766 1.80864,-0.06343 0.8634,0.160338 1.61771,0.579929 0.76626,0.434422 1.43206,1.047734 0.66579,0.613312 1.22778,1.310325 0.92069,1.141913 1.5357,2.481351 0.62985,1.327481 0.82007,2.838123 -0.92179,0.131447 -1.8168,0.265767 -0.86821,0.137193 -1.77804,0.28347 -0.27827,-1.194942 -0.66897,-2.225822 -0.37875,-1.01605 -1.13204,-1.950343 -0.17936,-0.222451 -0.41229,-0.450647 -0.20614,-0.225324 -0.46252,-0.361202 -0.25638,-0.135878 -0.54196,-0.125863 -0.27074,-0.0019 -0.55251,0.225243 -0.20762,0.167399 -0.28418,0.37595 -0.0794,0.235339 0.002,0.609893 0.10854,0.377428 0.32757,0.861539 0.21903,0.484111 0.49785,1.042372 0.29365,0.546304 0.57867,1.172969 0.27308,0.611836 0.50166,1.259543 0.25536,0.650579 0.36197,1.298751 0.13339,0.651045 0.0793,1.28198 -0.0393,0.618977 -0.33163,1.197268 -0.20956,0.438144 -0.56214,0.820305 -0.33776,0.370205 -0.72334,0.68109 -1.12708,0.908739 -2.22442,1.034906 -1.09734,0.126166 -2.12527,-0.26858 -1.0131,-0.406703 -1.92953,-1.209468 -0.93125,-0.790808 -1.68455,-1.725101 z" />
      <path
         inkscape:connector-curvature="0"
         id="path1009"
         style="font-style:normal;font-variant:normal;font-weight:normal;font-stretch:normal;font-size:19.04999924px;font-family:PRIMETIME;-inkscape-font-specification:'PRIMETIME, Normal';font-variant-ligatures:normal;font-variant-caps:normal;font-variant-numeric:normal;font-feature-settings:normal;text-align:start;writing-mode:lr-tb;text-anchor:start;fill:#ffffff;fill-opacity:1;stroke:none;stroke-width:1;stroke-miterlimit:4;stroke-dasharray:none;stroke-opacity:0.95454544"
         d="m 173.44908,41.022524 -4.03808,8.865879 -2.2995,-4.214036 2.42092,-5.94348 -4.36453,2.381617 -1.94362,-3.561863 12.97655,-7.080977 1.94362,3.561863 -4.36454,2.381617 6.30816,1.180246 2.39074,4.381259 z" />
      <path
         inkscape:connector-curvature="0"
         id="path1011"
         style="font-style:normal;font-variant:normal;font-weight:normal;font-stretch:normal;font-size:19.04999924px;font-family:PRIMETIME;-inkscape-font-specification:'PRIMETIME, Normal';font-variant-ligatures:normal;font-variant-caps:normal;font-variant-numeric:normal;font-feature-settings:normal;text-align:start;writing-mode:lr-tb;text-anchor:start;fill:#ffffff;fill-opacity:1;stroke:none;stroke-width:1;stroke-miterlimit:4;stroke-dasharray:none;stroke-opacity:0.95454544"
         d="m 169.8797,51.551128 13.78165,-5.347639 1.44028,3.71181 -13.78165,5.34764 z" />
      <path
         inkscape:connector-curvature="0"
         id="path1013"
         style="font-style:normal;font-variant:normal;font-weight:normal;font-stretch:normal;font-size:19.04999924px;font-family:PRIMETIME;-inkscape-font-specification:'PRIMETIME, Normal';font-variant-ligatures:normal;font-variant-caps:normal;font-variant-numeric:normal;font-feature-settings:normal;text-align:start;writing-mode:lr-tb;text-anchor:start;fill:#ffffff;fill-opacity:1;stroke:none;stroke-width:1;stroke-miterlimit:4;stroke-dasharray:none;stroke-opacity:0.95454544"
         d="m 182.80192,68.815948 -6.75222,7.022637 -0.7702,-4.738413 4.25664,-4.802793 -4.90764,0.797707 -0.651,-4.005087 14.5913,-2.371727 0.651,4.005087 -4.90764,0.797707 5.55865,3.207379 0.80076,4.926445 z" />
      <path
         inkscape:connector-curvature="0"
         id="path1015"
         style="font-style:normal;font-variant:normal;font-weight:normal;font-stretch:normal;font-size:19.04999924px;font-family:PRIMETIME;-inkscape-font-specification:'PRIMETIME, Normal';font-variant-ligatures:normal;font-variant-caps:normal;font-variant-numeric:normal;font-feature-settings:normal;text-align:start;writing-mode:lr-tb;text-anchor:start;fill:#ffffff;fill-opacity:1;stroke:none;stroke-width:1;stroke-miterlimit:4;stroke-dasharray:none;stroke-opacity:0.95454544"
         d="m 176.14825,77.919376 14.78131,0.209932 -0.0582,4.095336 -11.12408,-0.15799 -0.11037,7.771616 -3.65724,-0.05194 z" />
      <path
         inkscape:connector-curvature="0"
         id="path1017"
         style="font-style:normal;font-variant:normal;font-weight:normal;font-stretch:normal;font-size:19.04999924px;font-family:PRIMETIME;-inkscape-font-specification:'PRIMETIME, Normal';font-variant-ligatures:normal;font-variant-caps:normal;font-variant-numeric:normal;font-feature-settings:normal;text-align:start;writing-mode:lr-tb;text-anchor:start;fill:#ffffff;fill-opacity:1;stroke:none;stroke-width:1;stroke-miterlimit:4;stroke-dasharray:none;stroke-opacity:0.95454544"
         d="m 178.84457,104.21053 q -0.99165,-0.1898 -1.80657,-0.6949 -0.81851,-0.4864 -1.41491,-1.22121 -0.59997,-0.71611 -0.96987,-1.62093 -0.35119,-0.901237 -0.45278,-1.890473 -0.0522,-0.436696 -0.0447,-0.881359 0.008,-0.444663 0.0899,-0.875002 0.0824,-0.430338 0.23958,-0.846351 0.15363,-0.397303 0.36339,-0.783863 0.45971,-0.881799 1.11888,-1.589652 0.67789,-0.704271 1.50348,-1.166917 0.82201,-0.443935 1.76586,-0.612405 0.94026,-0.149759 1.93191,0.04005 l 9.2055,1.761955 -0.77354,4.041437 -8.96226,-1.715399 q -0.41163,-0.07879 -0.79936,0.02156 -0.36902,0.103931 -0.68468,0.334449 -0.29695,0.2341 -0.51468,0.560947 -0.20259,0.349139 -0.2778,0.742056 -0.0788,0.411628 -0.0159,0.792193 0.0781,0.402857 0.26758,0.730068 0.20823,0.330792 0.51278,0.563647 0.32327,0.236439 0.73489,0.315219 l 8.96227,1.7154 -0.77355,4.04144 z" />
      <path
         inkscape:connector-curvature="0"
         id="path1019"
         style="font-style:normal;font-variant:normal;font-weight:normal;font-stretch:normal;font-size:19.04999924px;font-family:PRIMETIME;-inkscape-font-specification:'PRIMETIME, Normal';font-variant-ligatures:normal;font-variant-caps:normal;font-variant-numeric:normal;font-feature-settings:normal;text-align:start;writing-mode:lr-tb;text-anchor:start;fill:#ffffff;fill-opacity:1;stroke:none;stroke-width:1;stroke-miterlimit:4;stroke-dasharray:none;stroke-opacity:0.95454544"
         d="m 169.93304,113.03388 3.01422,-7.82128 13.79389,5.31598 -2.7813,7.21691 q -0.15071,0.39107 -0.41492,0.7588 -0.25329,0.39237 -0.59954,0.70807 -0.33532,0.34034 -0.71433,0.58217 -0.38587,0.25961 -0.78396,0.39201 -0.70454,0.23887 -1.45129,0.21649 -0.75361,-0.005 -1.44686,-0.27178 -0.7999,-0.30827 -1.42317,-0.91596 -0.60549,-0.60083 -0.92362,-1.41756 -0.39957,0.29515 -0.87839,0.47811 -0.48567,0.20072 -1.00134,0.26739 -0.51567,0.0667 -1.04357,0.006 -0.51697,-0.0359 -0.96136,-0.20717 -0.78213,-0.30142 -1.3767,-0.87762 -0.58364,-0.55158 -0.91139,-1.29037 -0.31683,-0.71416 -0.36963,-1.53071 -0.035,-0.80971 0.27326,-1.60962 z m 11.68539,2.52307 0.95222,-2.47081 -2.80855,-1.08238 -0.95222,2.47081 q -0.21921,0.56882 0.0321,1.13522 0.26221,0.59103 0.83103,0.81025 0.56882,0.21921 1.14207,-0.0498 0.58418,-0.24443 0.80339,-0.81325 z m -5.36287,-1.92387 1.00017,-2.59524 -2.79077,-1.07553 -1.00017,2.59525 q -0.22607,0.58659 0.0252,1.15299 0.25128,0.5664 0.83788,0.79247 0.56882,0.21922 1.13522,-0.0321 0.5664,-0.25128 0.79246,-0.83788 z" />
      <path
         inkscape:connector-curvature="0"
         id="path1021"
         style="font-style:normal;font-variant:normal;font-weight:normal;font-stretch:normal;font-size:19.04999924px;font-family:PRIMETIME;-inkscape-font-specification:'PRIMETIME, Normal';font-variant-ligatures:normal;font-variant-caps:normal;font-variant-numeric:normal;font-feature-settings:normal;text-align:start;writing-mode:lr-tb;text-anchor:start;fill:#ffffff;fill-opacity:1;stroke:none;stroke-width:1;stroke-miterlimit:4;stroke-dasharray:none;stroke-opacity:0.95454544"
         d="m 171.91071,132.75161 -1.66214,-1.14667 -3.85109,5.58228 -2.96363,-2.04454 3.85109,-5.58228 -4.54737,-3.13713 2.23926,-3.24588 11.91724,8.22143 0.0778,0.42398 -6.43652,9.32994 -2.99499,-2.06618 z" />
      <path
         inkscape:connector-curvature="0"
         id="path1023"
         style="font-style:normal;font-variant:normal;font-weight:normal;font-stretch:normal;font-size:19.04999924px;font-family:PRIMETIME;-inkscape-font-specification:'PRIMETIME, Normal';font-variant-ligatures:normal;font-variant-caps:normal;font-variant-numeric:normal;font-feature-settings:normal;text-align:start;writing-mode:lr-tb;text-anchor:start;fill:#ffffff;fill-opacity:1;stroke:none;stroke-width:1;stroke-miterlimit:4;stroke-dasharray:none;stroke-opacity:0.95454544"
         d="m 151.68678,139.69925 1.99201,0.87602 3.17619,-3.26208 -0.92886,-1.96793 2.9104,-2.98911 6.77745,14.22987 -2.43197,2.49775 -14.40562,-6.39541 z m 8.82828,4.36826 -1.97408,-3.57058 -1.6346,1.67881 z" />
      <path
         inkscape:connector-curvature="0"
         id="path1025"
         style="font-style:normal;font-variant:normal;font-weight:normal;font-stretch:normal;font-size:19.04999924px;font-family:PRIMETIME;-inkscape-font-specification:'PRIMETIME, Normal';font-variant-ligatures:normal;font-variant-caps:normal;font-variant-numeric:normal;font-feature-settings:normal;text-align:start;writing-mode:lr-tb;text-anchor:start;fill:#ffffff;fill-opacity:1;stroke:none;stroke-width:1;stroke-miterlimit:4;stroke-dasharray:none;stroke-opacity:0.95454544"
         d="m 140.40656,148.71481 8.72649,3.50835 -4.5331,-6.45377 3.22689,-2.26654 8.48586,12.08132 -3.2113,2.2556 -8.78586,-3.55976 4.57689,6.51612 -3.24247,2.2775 -8.48587,-12.08133 z" />
      <path
         inkscape:connector-curvature="0"
         id="path1027"
         style="font-style:normal;font-variant:normal;font-weight:normal;font-stretch:normal;font-size:19.04999924px;font-family:PRIMETIME;-inkscape-font-specification:'PRIMETIME, Normal';font-variant-ligatures:normal;font-variant-caps:normal;font-variant-numeric:normal;font-feature-settings:normal;text-align:start;writing-mode:lr-tb;text-anchor:start;fill:#ffffff;fill-opacity:1;stroke:none;stroke-width:1;stroke-miterlimit:4;stroke-dasharray:none;stroke-opacity:0.95454544"
         d="m 129.41325,167.03192 3.66748,-1.73614 -4.76011,-10.05542 3.63303,-1.71983 4.76011,10.05542 3.66747,-1.73614 0.35517,0.12694 1.45086,3.06484 -11.45009,5.42033 -1.45086,-3.06484 z" />
      <path
         inkscape:connector-curvature="0"
         id="path1029"
         style="font-style:normal;font-variant:normal;font-weight:normal;font-stretch:normal;font-size:19.04999924px;font-family:PRIMETIME;-inkscape-font-specification:'PRIMETIME, Normal';font-variant-ligatures:normal;font-variant-caps:normal;font-variant-numeric:normal;font-feature-settings:normal;text-align:start;writing-mode:lr-tb;text-anchor:start;fill:#ffffff;fill-opacity:1;stroke:none;stroke-width:1;stroke-miterlimit:4;stroke-dasharray:none;stroke-opacity:0.95454544"
         d="m 115.92048,159.45502 1.29005,1.75251 4.37963,-1.24427 0.17594,-2.169 4.01313,-1.14014 -1.21926,15.71421 -3.35343,0.95272 -9.29919,-12.72588 z m 5.47507,8.18803 0.0689,-4.07937 -2.25395,0.64036 z" />
      <path
         inkscape:connector-curvature="0"
         id="path1031"
         style="font-style:normal;font-variant:normal;font-weight:normal;font-stretch:normal;font-size:19.04999924px;font-family:PRIMETIME;-inkscape-font-specification:'PRIMETIME, Normal';font-variant-ligatures:normal;font-variant-caps:normal;font-variant-numeric:normal;font-feature-settings:normal;text-align:start;writing-mode:lr-tb;text-anchor:start;fill:#ffffff;fill-opacity:1;stroke:none;stroke-width:1;stroke-miterlimit:4;stroke-dasharray:none;stroke-opacity:0.95454544"
         d="m 105.18541,160.88513 q 1.47821,-0.15094 2.97424,0.0601 1.47514,0.19406 2.8656,0.684 0.0379,-0.004 0.19726,0.0565 0.16129,0.0793 0.16516,0.11718 0.002,0.019 -0.0603,0.15935 -0.0623,0.1404 -0.15662,0.34153 -0.0924,0.22007 -0.21888,0.48192 -0.12452,0.2808 -0.24904,0.56161 -0.26799,0.56353 -0.50388,1.06635 -0.2359,0.50281 -0.32832,0.72289 -0.25604,-0.0696 -0.49701,-0.17904 -1.07562,-0.4072 -2.12803,-0.58698 -1.06942,-0.15889 -2.22546,-0.0408 -0.32218,0.0329 -0.68032,0.0886 -0.37516,0.0766 -0.66677,0.22128 -0.29161,0.14467 -0.45791,0.39143 -0.18331,0.26766 -0.1388,0.70354 0.0213,0.20847 0.15048,0.34847 0.13112,0.15895 0.31329,0.25525 0.18411,0.11524 0.3833,0.19065 0.19919,0.0754 0.37556,0.11484 0.41346,0.11098 0.83814,0.14421 0.42467,0.0332 0.85128,0.0854 0.56313,0.0765 1.10539,0.13607 0.54225,0.0595 1.05047,0.16082 0.52717,0.0994 1.01837,0.22155 0.47418,0.14307 0.89732,0.34881 0.86523,0.40953 1.44117,1.17413 0.55893,0.78548 0.69826,2.14999 0.0484,0.47378 0.002,0.95725 -0.0634,0.50435 -0.22736,0.96151 -0.32791,0.91434 -0.93316,1.55062 -0.60525,0.63627 -1.36832,1.03972 -0.78201,0.40538 -1.65918,0.62899 -0.87718,0.22361 -1.7679,0.31456 -1.45926,0.149 -2.91739,-0.0659 -1.45619,-0.196 -2.82616,-0.86037 0.39251,-0.84434 0.76801,-1.66779 0.35848,-0.80257 0.73204,-1.64497 1.15337,0.4184 2.23053,0.6531 1.05821,0.23663 2.25215,0.11472 0.28427,-0.029 0.60258,-0.0998 0.30129,-0.0499 0.555,-0.19071 0.25371,-0.1408 0.40105,-0.38563 0.14928,-0.22589 0.11251,-0.58596 -0.0271,-0.26532 -0.16015,-0.44323 -0.15395,-0.19492 -0.51249,-0.33065 -0.37556,-0.11484 -0.90079,-0.19526 -0.52524,-0.0804 -1.14523,-0.15115 -0.61806,-0.0518 -1.29878,-0.15462 -0.66176,-0.10477 -1.32933,-0.26639 -0.68459,-0.14074 -1.28603,-0.40486 -0.61846,-0.24324 -1.1178,-0.63268 -0.497406,-0.37049 -0.822715,-0.93089 -0.252973,-0.4146 -0.381026,-0.91855 -0.126119,-0.485 -0.176431,-0.97773 -0.147067,-1.44032 0.345608,-2.42892 0.492676,-0.98861 1.384134,-1.63496 0.89339,-0.6274 2.06604,-0.95777 1.17072,-0.34933 2.36467,-0.47124 z" />
      <path
         inkscape:connector-curvature="0"
         id="path1033"
         style="font-style:normal;font-variant:normal;font-weight:normal;font-stretch:normal;font-size:19.04999924px;font-family:PRIMETIME;-inkscape-font-specification:'PRIMETIME, Normal';font-variant-ligatures:normal;font-variant-caps:normal;font-variant-numeric:normal;font-feature-settings:normal;text-align:start;writing-mode:lr-tb;text-anchor:start;fill:#ffffff;fill-opacity:1;stroke:none;stroke-width:1;stroke-miterlimit:4;stroke-dasharray:none;stroke-opacity:0.95454544"
         d="m 84.23744,172.28033 4.046892,0.29527 0.80956,-11.09571 4.008894,0.2925 -0.80956,11.0957 4.046892,0.29527 0.246586,0.2854 -0.24675,3.38191 -12.634664,-0.92185 0.246749,-3.38191 z" />
      <path
         inkscape:connector-curvature="0"
         id="path1035"
         style="font-style:normal;font-variant:normal;font-weight:normal;font-stretch:normal;font-size:19.04999924px;font-family:PRIMETIME;-inkscape-font-specification:'PRIMETIME, Normal';font-variant-ligatures:normal;font-variant-caps:normal;font-variant-numeric:normal;font-feature-settings:normal;text-align:start;writing-mode:lr-tb;text-anchor:start;fill:#ffffff;fill-opacity:1;stroke:none;stroke-width:1;stroke-miterlimit:4;stroke-dasharray:none;stroke-opacity:0.95454544"
         d="m 73.278123,163.63584 1.293585,-4.9191 4.071619,1.07072 -1.293586,4.9191 2.531595,10.67216 -4.495361,-1.18215 -1.234339,-5.64297 -3.832155,4.31063 -4.495361,-1.18216 z" />
      <path
         inkscape:connector-curvature="0"
         id="path1037"
         style="font-style:normal;font-variant:normal;font-weight:normal;font-stretch:normal;font-size:19.04999924px;font-family:PRIMETIME;-inkscape-font-specification:'PRIMETIME, Normal';font-variant-ligatures:normal;font-variant-caps:normal;font-variant-numeric:normal;font-feature-settings:normal;text-align:start;writing-mode:lr-tb;text-anchor:start;fill:#ffffff;fill-opacity:1;stroke:none;stroke-width:1;stroke-miterlimit:4;stroke-dasharray:none;stroke-opacity:0.95454544"
         d="m 58.38426,160.76991 -1.927641,-9.54956 4.333667,2.06521 1.524015,6.23403 2.138966,-4.48844 3.662981,1.74559 -6.359531,13.34495 -3.66298,-1.74559 2.138965,-4.48844 -5.801946,2.74284 -4.505639,-2.14716 z" />
      <path
         inkscape:connector-curvature="0"
         id="path1039"
         style="font-style:normal;font-variant:normal;font-weight:normal;font-stretch:normal;font-size:19.04999924px;font-family:PRIMETIME;-inkscape-font-specification:'PRIMETIME, Normal';font-variant-ligatures:normal;font-variant-caps:normal;font-variant-numeric:normal;font-feature-settings:normal;text-align:start;writing-mode:lr-tb;text-anchor:start;fill:#ffffff;fill-opacity:1;stroke:none;stroke-width:1;stroke-miterlimit:4;stroke-dasharray:none;stroke-opacity:0.95454544"
         d="m 55.092227,150.12603 -8.051175,12.39798 -3.339145,-2.16843 8.051175,-12.39797 z" />
    </g>
    <rect
       style="fill:#ffffff;fill-opacity:1;stroke:none;stroke-width:0.92979527;stroke-linecap:round;stroke-miterlimit:4;stroke-dasharray:none;stroke-opacity:0.95454544"
       id="rect984"
       width="11.388947"
       height="2.993154"
       x="-24.696075"
       y="-2.3649108"
       transform="matrix(0.01583154,-0.99987467,0.99957952,0.02899634,0,0)" />
    <g
       id="g923"
       transform="translate(-11.600327)">
      <path
         sodipodi:nodetypes="ccccc"
         inkscape:connector-curvature="0"
         id="path4599"
         d="m 104.81018,44.687542 98.88836,-11.502984 c 5.14294,1.717202 6.60888,7.060701 -0.88923,9.459937 l -98.05354,6.615289 z"
         style="fill:#333333;stroke:#000000;stroke-width:1;stroke-linecap:butt;stroke-linejoin:miter;stroke-miterlimit:4;stroke-dasharray:none;stroke-opacity:1" />
      <path
         sodipodi:nodetypes="ccccc"
         inkscape:connector-curvature="0"
         id="path4591"
         d="m 50.65279,-23.109964 c -5.420008,-3.695391 -10.084651,1.628502 -7.124061,7.131356 l 52.566644,57.671139 5.378207,-0.188409 z"
         style="fill:#333333;stroke:#000000;stroke-width:1;stroke-linecap:butt;stroke-linejoin:miter;stroke-miterlimit:4;stroke-dasharray:none;stroke-opacity:1" />
      <path
         sodipodi:nodetypes="ccccc"
         inkscape:connector-curvature="0"
         id="path4593"
         d="M 95.339172,44.033753 7.1236104,4.5953153 C -0.83395067,5.040414 2.1125161,12.793246 4.4563807,12.936324 L 95.48229,49.23857 Z"
         style="fill:#333333;stroke:#000000;stroke-width:1;stroke-linecap:butt;stroke-linejoin:miter;stroke-miterlimit:4;stroke-dasharray:none;stroke-opacity:1" />
      <path
         sodipodi:nodetypes="ccccc"
         inkscape:connector-curvature="0"
         id="path4587"
         d="m -26.455034,83.495912 c -0.15042,2.372999 1.084048,1.284415 1.803408,1.483351 l 6.522787,-13.635188 -2.760283,-1.839899 z"
         style="fill:#1a1a1a;stroke:#000000;stroke-width:1.06978369;stroke-linecap:butt;stroke-linejoin:miter;stroke-miterlimit:4;stroke-dasharray:none;stroke-opacity:1" />
      <path
         sodipodi:nodetypes="ccccc"
         inkscape:connector-curvature="0"
         id="path4585"
         d="m -24.46289,28.346239 8.110558,14.057006 2.685711,-0.297528 -8.287421,-17.043928 c -3.597781,-0.81325 -2.609567,1.54221 -2.508848,3.28445 z"
         style="fill:#1a1a1a;stroke:#000000;stroke-width:1.06978369;stroke-linecap:butt;stroke-linejoin:miter;stroke-miterlimit:4;stroke-dasharray:none;stroke-opacity:1" />
      <path
         sodipodi:nodetypes="ccccccccccscscsssccc"
         inkscape:connector-curvature="0"
         id="path3724"
         d="m 72.750525,118.59212 c 17.788595,-9.92572 71.326085,5.35329 82.067235,-4.38013 1.94215,0.38124 13.28221,-3.63805 0.30128,-17.611194 -4.51017,-3.086691 -5.07016,-4.507704 -10.64657,-5.905154 -2.94995,-10.338864 -6.34002,-12.435425 -9.26181,-12.479787 -0.30124,-2.963117 0.0259,-5.5826 -3.72325,-5.669338 -2.50279,-8.949015 -9.73793,-6.795695 -14.83495,-9.658516 -1.24392,-7.562295 -7.91237,-6.313735 -12.59098,-6.527425 l -2.72285,-3.768512 -6.192518,-2.766351 c 0,0 -3.319108,0.625905 -4.767304,1.436643 -2.122361,1.188156 -5.447126,4.855298 -5.447126,4.855298 -5.859955,-1.162388 -11.112284,-1.79179 -15.994356,-0.68112 -4.584171,1.042854 -9.501031,6.138449 -14.480784,9.980722 -27.279278,1.961291 -56.7627587,4.536995 -57.7136007,2.114337 L -15.811685,35.543502 c -2.636973,-6.718766 -12.219372,-2.422848 -12.152003,2.127537 0.191588,12.940691 1.686699,24.048214 5.230525,38.668491 22.99454651,8.798078 37.169358,14.975798 58.290113,21.279687 10.312641,9.905723 23.086326,16.371343 37.193575,20.972903 z"
         style="fill:#193a00;fill-opacity:1;stroke:#000000;stroke-width:1.06978369;stroke-linecap:butt;stroke-linejoin:miter;stroke-miterlimit:4;stroke-dasharray:none;stroke-opacity:1" />
      <path
         sodipodi:nodetypes="ccccscc"
         inkscape:connector-curvature="0"
         id="path4605"
         d="M -22.78187,75.759178 53.567032,99.58692 c 45.363998,5.46216 71.608928,6.68727 107.388618,9.88841 -8.14953,15.22423 -32.36468,14.15494 -43.30301,14.10784 -10.12377,-0.01 -32.984893,-1.06403 -42.349376,-3.44747 C 54.895414,114.94152 45.745015,105.73401 35.950055,98.098652 14.319152,92.963245 -0.25412808,84.151069 -22.78187,75.759178 Z"
         style="fill:#666666;fill-opacity:1;stroke:#000000;stroke-width:1.06978369;stroke-linecap:butt;stroke-linejoin:miter;stroke-miterlimit:4;stroke-dasharray:none;stroke-opacity:1" />
      <path
         sodipodi:nodetypes="ccccc"
         inkscape:connector-curvature="0"
         id="path3726"
         d="m 113.28264,60.879344 c -2.16559,4.774742 -2.87277,12.918624 0.79112,16.525711 9.38106,-0.592705 13.79079,-1.161867 18.20294,0.744372 3.17959,2.405847 4.96974,-2.989573 0.41884,-4.699221 -3.84242,-8.586134 -11.91059,-13.431396 -19.4129,-12.570862 z"
         style="fill:#333333;stroke:#000000;stroke-width:1.2451123;stroke-linecap:butt;stroke-linejoin:miter;stroke-miterlimit:4;stroke-dasharray:none;stroke-opacity:1" />
      <path
         sodipodi:nodetypes="cc"
         inkscape:connector-curvature="0"
         id="path4540"
         d="m 131.48299,71.733663 c 0.0255,-0.244576 1.28039,1.695122 0.47685,6.278077"
         style="fill:none;stroke:#000000;stroke-width:1.06978369;stroke-linecap:butt;stroke-linejoin:miter;stroke-miterlimit:4;stroke-dasharray:none;stroke-opacity:1" />
      <path
         sodipodi:nodetypes="cccc"
         inkscape:connector-curvature="0"
         id="path4542"
         d="m 114.98545,82.015895 8.26681,4.431404 c 0.65781,-2.788662 1.95472,-5.774012 4.56053,-7.357095 -7.51245,-1.303676 -15.85746,-0.471946 -12.82734,2.925691 z"
         style="fill:#cccccc;stroke:#000000;stroke-width:1.2451123;stroke-linecap:butt;stroke-linejoin:miter;stroke-miterlimit:4;stroke-dasharray:none;stroke-opacity:1" />
      <path
         sodipodi:nodetypes="cccscc"
         inkscape:connector-curvature="0"
         id="path4544"
         d="m 132.53825,79.369635 c -3.37893,-0.0062 -6.03539,2.193358 -7.64235,7.596841 l 3.09397,1.565879 c 0,0 2.55867,1.994989 4.08203,2.065934 1.60563,0.07477 4.48622,-1.768201 4.48622,-1.768201 -1.26749,-3.203841 -0.60712,-7.747734 -4.01987,-9.460453 z"
         style="fill:#cccccc;stroke:#000000;stroke-width:1.2451123;stroke-linecap:butt;stroke-linejoin:miter;stroke-miterlimit:4;stroke-dasharray:none;stroke-opacity:1" />
      <path
         sodipodi:nodetypes="cccc"
         inkscape:connector-curvature="0"
         id="path4557"
         d="m 136.43444,81.282892 1.78217,6.70595 5.47628,1.957328 c -2.9033,-4.053328 -4.98149,-9.294184 -7.25845,-8.663278 z"
         style="fill:#cccccc;stroke:#000000;stroke-width:1.2451123;stroke-linecap:butt;stroke-linejoin:miter;stroke-miterlimit:4;stroke-dasharray:none;stroke-opacity:1" />
      <ellipse
         transform="matrix(0.93706527,0.34915422,-0.28430254,0.95873462,0,0)"
         ry="6.3144441"
         rx="2.6946416"
         cy="29.452124"
         cx="108.92178"
         id="path4561"
         style="fill:#1a1a1a;fill-opacity:1;stroke:#000000;stroke-width:1.07103622;stroke-miterlimit:4;stroke-dasharray:none;stroke-opacity:1" />
      <path
         sodipodi:nodetypes="cccc"
         inkscape:connector-curvature="0"
         id="path4565"
         d="m 95.456838,60.039362 c 1.883142,-0.344315 3.34517,0.73148 4.750202,1.999442 -1.279156,5.306155 -3.308631,7.63385 -6.714196,9.730023 1.989867,-3.918151 5.159213,-8.579333 1.963999,-11.729464 z"
         style="fill:#333333;stroke:#000000;stroke-width:1.06978369;stroke-linecap:butt;stroke-linejoin:miter;stroke-miterlimit:4;stroke-dasharray:none;stroke-opacity:1" />
      <path
         sodipodi:nodetypes="scsss"
         inkscape:connector-curvature="0"
         id="path4575"
         d="M 65.848101,73.226145 38.88824,66.877058 C 20.339186,61.019696 17.111029,78.200032 25.276689,80.280397 l 31.027073,7.904762 c 8.364235,2.130959 11.750572,-14.439442 9.544339,-14.959014 z"
         style="fill:#112700;fill-opacity:1;stroke:#000000;stroke-width:1.10139513;stroke-linecap:butt;stroke-linejoin:miter;stroke-miterlimit:4;stroke-dasharray:none;stroke-opacity:1" />
      <path
         sodipodi:nodetypes="ccccc"
         inkscape:connector-curvature="0"
         id="path4583"
         d="M -10.411841,48.903908 13.599318,35.618324 c 1.724001,0.185218 1.792604,1.323331 0.302838,3.358423 l -22.6723324,13.94671 z"
         style="fill:#1a1a1a;stroke:#000000;stroke-width:1.06978369;stroke-linecap:butt;stroke-linejoin:miter;stroke-miterlimit:4;stroke-dasharray:none;stroke-opacity:1" />
      <path
         sodipodi:nodetypes="ccccc"
         inkscape:connector-curvature="0"
         id="path4597"
         d="M 195.42901,88.619248 107.93398,49.711295 c -3.84319,-2.182298 -4.81903,0.364843 -5.0374,1.464972 l 88.54387,44.912823 c 4.25614,1.414695 8.81228,-2.960833 3.98856,-7.469842 z"
         style="fill:#333333;stroke:#000000;stroke-width:1;stroke-linecap:butt;stroke-linejoin:miter;stroke-miterlimit:4;stroke-dasharray:none;stroke-opacity:1" />
      <path
         sodipodi:nodetypes="scssss"
         inkscape:connector-curvature="0"
         id="path4603"
         d="m 95.826775,43.139444 c -0.747161,1.400909 -0.785103,4.756508 -0.785103,4.756508 -0.276083,3.779853 1.770962,1.853257 6.149698,4.545234 0.74636,0.458852 2.5152,-1.359234 3.81364,-5.93393 2.00925,-7.079059 -5.440198,-6.438606 -5.970999,-6.040506 0,0 -2.787985,1.886609 -3.207236,2.672694 z"
         style="fill:#1a1a1a;stroke:#000000;stroke-width:1.06978369;stroke-linecap:butt;stroke-linejoin:miter;stroke-miterlimit:4;stroke-dasharray:none;stroke-opacity:1" />
      <g
         transform="matrix(1.318432,0.30069115,-0.29305372,1.1652062,-12.97836,-45.487489)"
         id="g4761">
        <path
           style="fill:#ececec;fill-opacity:1;stroke:#000000;stroke-width:1;stroke-miterlimit:4;stroke-dasharray:none;stroke-opacity:1"
           d="m 94.447577,78.572785 c -4.46807,0.753407 -8.232807,5.111269 -7.302171,9.966006 0.369539,1.913757 2.200981,3.865706 3.558135,5.211169 -0.421202,0.570157 -0.58225,1.323645 -0.441252,2.064481 0.270057,1.408134 1.534479,2.373297 2.82421,2.155783 0.92945,-0.157391 1.654673,-0.901595 1.84652,-1.894943 0.0671,0.01516 0.134319,0.02944 0.201657,0.04283 0.537162,0.920214 1.524619,1.419337 2.487116,1.257148 0.859982,-0.145174 1.551299,-0.794765 1.799448,-1.69066 0.252436,-0.103871 0.49924,-0.221536 0.73949,-0.352557 0.56868,0.694723 1.41687,1.035674 2.23559,0.898653 1.28987,-0.217445 2.11663,-1.535414 1.84657,-2.943677 -0.1071,-0.554208 -0.37659,-1.065162 -0.76781,-1.455442 0.86768,-1.760183 1.63671,-4.328836 1.25298,-6.342396 -0.93082,-4.854709 -5.812406,-7.669758 -10.280483,-6.916394 z"
           id="path4659"
           inkscape:connector-curvature="0"
           sodipodi:nodetypes="ccccccccccccccc" />
        <path
           style="fill:#000000;fill-opacity:1;stroke:#000000;stroke-width:0.10113756;stroke-miterlimit:4;stroke-dasharray:none;stroke-opacity:1"
           d="m 89.780857,85.285743 c 1.375601,-1.824147 2.886118,-1.659209 3.887618,-0.655512 0.798163,0.799915 0.84523,2.287696 0.625273,3.261462 -0.800171,1.002984 -2.110796,1.756412 -3.887618,0.655512 -1.28488,-1.769059 -0.945157,-2.508975 -0.625273,-3.261462 z"
           id="rect4686"
           inkscape:connector-curvature="0"
           sodipodi:nodetypes="csccc" />
        <path
           sodipodi:nodetypes="csccc"
           inkscape:connector-curvature="0"
           id="path4691"
           d="m 100.55813,83.638347 c -1.966981,-1.260536 -3.318472,-0.61958 -3.887617,0.655512 -0.464911,1.04157 0.05741,2.420535 0.625273,3.261463 1.12259,0.678777 2.630975,0.956876 3.887614,-0.655512 0.54734,-2.078 -0.0459,-2.660599 -0.62527,-3.261463 z"
           style="fill:#000000;fill-opacity:1;stroke:#000000;stroke-width:0.10113756;stroke-miterlimit:4;stroke-dasharray:none;stroke-opacity:1" />
        <path
           style="fill:#000000;stroke:#000000;stroke-width:0.10224763px;stroke-linecap:butt;stroke-linejoin:miter;stroke-opacity:1"
           d="m 97.636224,90.441127 c -0.02591,-1.035291 0.05468,-1.556563 -1.746653,-2.29249 -1.346659,0.892209 -1.014458,2.100567 -0.643342,2.796025 0.738386,-0.02825 1.644934,-0.181358 2.389995,-0.503535 z"
           id="path4693"
           inkscape:connector-curvature="0"
           sodipodi:nodetypes="cccc" />
      </g>
      <g
         transform="matrix(2.156362e-4,0.2031131,-0.2031131,2.156362e-4,-17.024215,27.604285)"
         id="g1029">
        <rect
           style="fill:#ffffff;fill-opacity:1;stroke:none;stroke-width:1.15058756;stroke-linecap:round;stroke-miterlimit:4;stroke-dasharray:none;stroke-opacity:1"
           id="rect1017"
           width="23.484314"
           height="23.484314"
           x="112.43639"
           y="-14.381248" />
        <rect
           style="fill:#ff0000;fill-opacity:1;stroke:none;stroke-width:1;stroke-linecap:round;stroke-miterlimit:4;stroke-dasharray:none;stroke-opacity:1"
           id="rect991"
           width="20.410715"
           height="20.410715"
           x="115.50999"
           y="-11.30765" />
        <rect
           style="fill:#ff0000;fill-opacity:1;stroke:none;stroke-width:1.15058756;stroke-linecap:round;stroke-miterlimit:4;stroke-dasharray:none;stroke-opacity:1"
           id="rect1011"
           width="23.484314"
           height="23.484314"
           x="135.9207"
           y="-14.381249" />
        <rect
           y="8.6433859"
           x="135.9207"
           height="23.484314"
           width="23.484314"
           id="rect1019"
           style="fill:#ffffff;fill-opacity:1;stroke:none;stroke-width:1.15058756;stroke-linecap:round;stroke-miterlimit:4;stroke-dasharray:none;stroke-opacity:1" />
        <rect
           y="9.1030655"
           x="112.43639"
           height="23.484314"
           width="23.484314"
           id="rect1013"
           style="fill:#ff0000;fill-opacity:1;stroke:none;stroke-width:1.15058756;stroke-linecap:round;stroke-miterlimit:4;stroke-dasharray:none;stroke-opacity:1" />
        <rect
           y="-11.30765"
           x="135.9207"
           height="20.410715"
           width="20.410715"
           id="rect993"
           style="fill:#ffffff;fill-opacity:1;stroke:none;stroke-width:1;stroke-linecap:round;stroke-miterlimit:4;stroke-dasharray:none;stroke-opacity:1" />
        <rect
           style="fill:#ffffff;fill-opacity:1;stroke:none;stroke-width:1;stroke-linecap:round;stroke-miterlimit:4;stroke-dasharray:none;stroke-opacity:1"
           id="rect995"
           width="20.410715"
           height="20.410715"
           x="115.50998"
           y="9.1030655" />
        <rect
           y="9.1030655"
           x="135.9207"
           height="20.410715"
           width="20.410715"
           id="rect997"
           style="fill:#ff0000;fill-opacity:1;stroke:none;stroke-width:1;stroke-linecap:round;stroke-miterlimit:4;stroke-dasharray:none;stroke-opacity:1" />
      </g>
      <path
         sodipodi:nodetypes="ccccc"
         inkscape:connector-curvature="0"
         id="rect918"
         d="m 159.30966,112.38048 18.19182,1.86596 -0.2222,2.29805 -19.99393,-1.86596 z"
         style="fill:#666666;fill-opacity:1;stroke:#000000;stroke-width:1;stroke-linecap:round;stroke-miterlimit:4;stroke-dasharray:none;stroke-opacity:0.95454544" />
      <path
         sodipodi:nodetypes="ccccc"
         inkscape:connector-curvature="0"
         id="path881"
         d="m 178.23029,115.37289 c -0.023,0.65647 -0.29235,1.20855 -0.6016,1.23314 -0.30925,0.0252 -0.54137,-0.48765 -0.51837,-1.14412 0.023,-0.65645 0.29236,-1.20853 0.60164,-1.23312 0.30921,-0.0253 0.54134,0.48765 0.51833,1.1441 z"
         style="fill:#000000;fill-opacity:1;stroke:#000000;stroke-width:0.91909683;stroke-linecap:round;stroke-miterlimit:4;stroke-dasharray:none;stroke-opacity:1" />
    </g>
    <path
       inkscape:connector-curvature="0"
       id="path1474"
       style="font-style:normal;font-variant:normal;font-weight:normal;font-stretch:normal;font-size:33.51388931px;line-height:1.25;font-family:Sniglet;-inkscape-font-specification:'Sniglet, Normal';font-variant-ligatures:normal;font-variant-caps:normal;font-variant-numeric:normal;font-feature-settings:normal;text-align:start;letter-spacing:2.37860417px;word-spacing:0px;writing-mode:lr-tb;text-anchor:start;fill:#ffffff;fill-opacity:1;stroke:#ff0000;stroke-width:2;stroke-miterlimit:4;stroke-dasharray:none;stroke-opacity:1"
       d="m 31.112205,147.90539 q -0.813384,-0.66772 -1.604835,-0.97361 -0.675614,-0.23841 -1.41617,-0.16558 -0.740557,0.0728 -1.338278,0.96578 -0.433811,0.67814 -0.389942,1.40183 0.06552,0.61994 0.574974,1.34334 0.526327,0.69445 2.000703,1.35936 1.387499,0.6143 2.278203,1.48221 0.366909,0.36887 0.683212,0.82461 0.345262,0.47262 0.473475,1.05151 0.174041,0.5668 0.114164,1.26884 -0.01405,0.68995 -0.348894,1.46453 -0.448147,0.90251 -1.123188,1.59528 -0.578606,0.5938 -1.526367,1.08893 -0.918803,0.51199 -2.252875,0.4718 -1.40886,-0.045 -3.066547,-0.66152 -1.438105,-0.52742 -3.286701,-1.68182 -1.848597,-1.15439 -3.992135,-3.33386 -1.458081,-1.62505 -2.105883,-3.70895 -0.287631,-0.90447 -0.44509,-1.96582 -0.111631,-1.07344 0.02753,-2.31108 0.156025,-1.2666 0.637623,-2.69261 0.510557,-1.40915 1.479393,-2.9392 1.344728,-2.24193 3.273702,-3.75568 0.836704,-0.63738 1.847163,-1.17356 1.056286,-0.54826 2.305727,-0.82886 1.278401,-0.26374 2.733088,-0.23086 1.483646,0.0497 3.191939,0.57941 1.679335,0.51281 3.288948,1.41163 1.348982,0.74701 2.773038,1.96439 1.469884,1.20528 2.452817,2.98019 0.461385,1.00568 0.46927,2.05748 2.87e-4,0.46559 -0.107951,0.98432 -0.09137,0.48977 -0.34918,0.99894 -0.228852,0.52604 -0.653106,1.05461 -0.424254,0.52857 -1.101827,1.02594 -0.706532,0.4805 -1.538745,0.57751 -0.711598,0.0897 -1.744277,-0.20157 -1.00372,-0.27439 -2.212973,-1.32786 z" />
    <path
       inkscape:connector-curvature="0"
       id="path1476"
       style="font-style:normal;font-variant:normal;font-weight:normal;font-stretch:normal;font-size:33.51388931px;line-height:1.25;font-family:Sniglet;-inkscape-font-specification:'Sniglet, Normal';font-variant-ligatures:normal;font-variant-caps:normal;font-variant-numeric:normal;font-feature-settings:normal;text-align:start;letter-spacing:2.37860417px;word-spacing:0px;writing-mode:lr-tb;text-anchor:start;fill:#ffffff;fill-opacity:1;stroke:#ff0000;stroke-width:2;stroke-miterlimit:4;stroke-dasharray:none;stroke-opacity:1"
       d="m 50.085569,145.29231 q 1.769269,0.62966 3.018804,1.2356 1.28149,0.61605 2.13911,1.23868 0.899677,0.60078 1.427645,1.15433 0.527968,0.55356 0.790195,1.05825 0.653918,1.15577 0.288574,2.20017 -0.303082,0.95865 -0.876846,1.55053 -0.563661,0.55992 -1.29039,0.8574 -0.726729,0.29747 -1.584571,0.3426 -0.857842,0.0451 -1.707229,-0.0477 -1.996469,-0.24456 -4.352676,-1.13008 1.720403,0.8954 2.465246,1.76357 0.754946,0.83621 0.934704,1.49057 0.213359,0.77044 -0.09302,1.51715 -0.323287,1.02255 -1.068575,1.48991 -0.735185,0.43539 -1.495516,0.6168 -0.908356,0.2049 -1.937722,0.1255 1.511983,0.44288 2.579891,0.95625 1.067908,0.51337 1.775857,1.05353 0.739903,0.55026 1.161903,1.10547 0.432104,0.52325 0.662375,1.01784 0.515996,1.1473 0.142196,2.32963 -0.306375,0.74672 -0.871683,1.20067 -0.555205,0.422 -1.293684,0.64546 -0.706523,0.23357 -1.564366,0.2787 -0.847739,0.0132 -1.675273,-0.0376 -1.952765,-0.16045 -4.295576,-0.86599 -1.777725,-0.49174 -3.059214,-1.10778 -1.28149,-0.61605 -2.203019,-1.25888 -0.92153,-0.64284 -1.525158,-1.29061 -0.603627,-0.64778 -0.941512,-1.24669 -0.816987,-1.41821 -0.680267,-2.85124 0.251366,-2.24036 0.914852,-4.56132 0.705544,-2.34281 1.449629,-4.25165 0.845113,-2.22838 1.86175,-4.33225 0.535222,-1.02585 1.267113,-1.67318 0.773949,-0.66918 1.626851,-1.03221 0.884857,-0.35293 1.79486,-0.45187 0.95206,-0.12078 1.843504,-0.0498 2.068835,0.12684 4.371234,0.9602 z" />
    <path
       inkscape:connector-curvature="0"
       id="path1478"
       style="font-style:normal;font-variant:normal;font-weight:normal;font-stretch:normal;font-size:33.51388931px;line-height:1.25;font-family:Sniglet;-inkscape-font-specification:'Sniglet, Normal';font-variant-ligatures:normal;font-variant-caps:normal;font-variant-numeric:normal;font-feature-settings:normal;text-align:start;letter-spacing:2.37860417px;word-spacing:0px;writing-mode:lr-tb;text-anchor:start;fill:#ffffff;fill-opacity:1;stroke:#ff0000;stroke-width:2;stroke-miterlimit:4;stroke-dasharray:none;stroke-opacity:1"
       d="m 77.826948,156.25412 q 0.178594,1.83184 -0.175934,3.21409 -0.354527,1.38226 -0.805226,2.31894 -0.56525,1.09501 -1.304957,1.87224 1.11289,1.13864 1.730679,2.16735 0.654055,0.9982 0.916056,1.86172 0.262,0.86352 0.198726,1.5981 -0.02701,0.70407 -0.212337,1.29359 -0.488089,1.37076 -1.854705,2.39674 -1.034467,0.68457 -1.950384,0.77386 -0.918794,0.12269 -1.700027,-0.18007 -0.78411,-0.26937 -1.472678,-0.86688 -0.652302,-0.62804 -1.192929,-1.381 -1.264338,-1.72353 -2.208663,-4.42863 0.07204,1.11626 -0.06664,1.94526 -0.138682,0.82901 -0.42706,1.44329 -0.288377,0.61428 -0.662545,1.05298 -0.371291,0.40532 -0.797859,0.67132 -0.964811,0.65693 -2.284287,0.7451 -1.689645,0.0899 -2.739754,-0.60601 -1.047233,-0.72932 -1.612622,-1.58533 -0.687445,-1.00108 -0.945447,-2.30155 -0.615051,-3.01312 -0.541534,-5.42872 0.07639,-2.44899 0.398653,-4.23769 0.378658,-2.05293 1.059582,-3.70982 0.451822,-1.34024 1.139129,-2.29018 0.687307,-0.94994 1.485167,-1.62125 0.831249,-0.66843 1.706271,-1.06399 0.875021,-0.39557 1.699396,-0.59366 1.95789,-0.47048 4.119628,-0.18336 1.469171,0.12654 2.611945,0.52772 1.14565,0.36778 2.006922,0.9129 0.897538,0.5146 1.516449,1.13976 0.655178,0.59464 1.070872,1.23593 0.983959,1.46391 1.296115,3.30725 z m -9.247208,1.52451 q -0.567635,-0.0489 -1.039097,0.34779 -0.438072,0.39956 -0.417309,0.93956 0.0064,0.70695 0.317277,1.00283 0.344284,0.29876 0.911918,0.34765 0.567634,0.0489 0.963688,-0.25337 0.396054,-0.30227 0.444947,-0.8699 0.04602,-0.53425 -0.250496,-0.99708 -0.296514,-0.46283 -0.930928,-0.51748 z" />
    <path
       inkscape:connector-curvature="0"
       id="path1480"
       style="font-style:normal;font-variant:normal;font-weight:normal;font-stretch:normal;font-size:33.51388931px;line-height:1.25;font-family:Sniglet;-inkscape-font-specification:'Sniglet, Normal';font-variant-ligatures:normal;font-variant-caps:normal;font-variant-numeric:normal;font-feature-settings:normal;text-align:start;letter-spacing:2.37860417px;word-spacing:0px;writing-mode:lr-tb;text-anchor:start;fill:#ffffff;fill-opacity:1;stroke:#ff0000;stroke-width:2;stroke-miterlimit:4;stroke-dasharray:none;stroke-opacity:1"
       d="m 90.343663,148.31423 q 2.371881,-0.21505 3.897833,0.32518 1.554739,0.50259 2.496038,1.22226 1.091906,0.83482 1.687761,2.00632 0.742078,1.76059 0.545097,3.07169 -0.201413,1.27787 -0.759424,2.16379 -0.639939,1.03209 -1.689617,1.78075 1.590151,0.26118 2.53145,0.98085 0.941298,0.71968 1.413089,1.46819 0.55597,0.87252 0.76424,1.92668 0.24817,1.35313 0.0578,2.46048 -0.19036,1.10735 -0.68193,1.9844 -0.496,0.84383 -1.21792,1.51494 -0.721916,0.67111 -1.503646,1.14734 -1.877924,1.12965 -4.40923,1.67027 -1.381921,0.28582 -2.562332,0.30808 -1.180412,0.0223 -2.146017,-0.11939 -0.965606,-0.14164 -1.740759,-0.37632 -0.779586,-0.2679 -1.364287,-0.59562 -1.415236,-0.72406 -2.239195,-1.83131 -1.22264,-1.56122 -1.783131,-3.48128 -0.560491,-1.92005 -0.786546,-3.61425 -0.230489,-1.72741 -0.217335,-3.14922 0.01315,-1.42182 0.150368,-2.42064 0.148271,-1.16936 0.394009,-2.11504 0.281149,-1.18708 0.83916,-2.073 0.553578,-0.91914 1.242274,-1.58582 0.717483,-0.70433 1.503646,-1.14733 0.819382,-0.44744 1.590054,-0.75314 1.835889,-0.6845 3.98853,-0.76886 z m -0.276188,6.79903 q -0.564732,0.0754 -0.914608,0.49396 -0.32109,0.38095 -0.245738,0.94568 0.07092,0.53151 0.39873,0.96113 0.356597,0.39196 1.120645,0.29001 0.66439,-0.0886 0.938963,-0.56483 0.27014,-0.5094 0.199221,-1.04091 -0.06649,-0.49829 -0.447439,-0.81938 -0.385385,-0.35431 -1.049774,-0.26566 z m 1.362767,7.93279 q -0.564732,0.0753 -0.938963,0.56482 -0.341012,0.48505 -0.203653,1.00769 0.159521,0.68875 0.527175,0.91018 0.400874,0.217 0.965605,0.14164 0.564732,-0.0753 0.885821,-0.4563 0.32109,-0.38095 0.245738,-0.94568 -0.07092,-0.53151 -0.460736,-0.91904 -0.389817,-0.38753 -1.020987,-0.30331 z" />
    <path
       inkscape:connector-curvature="0"
       id="path1483"
       style="font-style:normal;font-variant:normal;font-weight:normal;font-stretch:normal;font-size:33.51388931px;line-height:1.25;font-family:Sniglet;-inkscape-font-specification:'Sniglet, Normal';font-variant-ligatures:normal;font-variant-caps:normal;font-variant-numeric:normal;font-feature-settings:normal;text-align:start;letter-spacing:2.37860417px;word-spacing:0px;writing-mode:lr-tb;text-anchor:start;fill:#ffffff;fill-opacity:1;stroke:#ff0000;stroke-width:2;stroke-miterlimit:4;stroke-dasharray:none;stroke-opacity:1"
       d="m 108.37524,143.82178 q 1.78707,-0.57719 3.14732,-0.85689 1.39175,-0.29113 2.45119,-0.31905 1.0795,-0.0709 1.83533,0.047 0.75583,0.1179 1.27106,0.35876 1.22228,0.51907 1.56804,1.57012 0.34296,0.94512 0.24793,1.76395 -0.10647,0.78734 -0.50205,1.46567 -0.39559,0.67834 -1.04879,1.23624 -0.6532,0.55791 -1.38363,1.00123 -1.73297,1.02104 -4.14148,1.75244 1.91003,-0.3366 3.02942,-0.10106 1.10796,0.20403 1.64884,0.61384 0.6382,0.48145 0.84956,1.26041 0.36583,1.00812 0.0589,1.83254 -0.31835,0.79292 -0.81124,1.39961 -0.59604,0.71542 -1.46113,1.27891 1.46924,-0.56881 2.62904,-0.81142 1.15979,-0.24261 2.05027,-0.24488 0.92199,-0.0137 1.59474,0.17 0.66132,0.15219 1.14504,0.40449 1.1077,0.5963 1.53069,1.76194 0.21136,0.77895 0.0391,1.4832 -0.18369,0.67275 -0.63365,1.29951 -0.41845,0.61533 -1.07165,1.17324 -0.66463,0.5264 -1.35213,0.98979 -1.64709,1.06118 -3.93544,1.92723 -1.70984,0.69178 -3.10159,0.98291 -1.39175,0.29113 -2.51419,0.34192 -1.12244,0.0508 -1.99565,-0.0958 -0.8732,-0.14661 -1.50581,-0.41618 -1.51139,-0.62806 -2.27508,-1.84833 -1.16407,-1.93063 -2.05019,-4.17604 -0.86605,-2.28834 -1.4374,-4.2558 -0.68567,-2.28249 -1.15945,-4.57057 -0.19967,-1.13972 -0.0129,-2.0988 0.20683,-1.00201 0.66263,-1.80916 0.4873,-0.81857 1.14914,-1.45092 0.68191,-0.67528 1.43242,-1.16154 1.71874,-1.15848 4.05281,-1.89852 z" />
    <path
       inkscape:connector-curvature="0"
       id="path1485"
       style="font-style:normal;font-variant:normal;font-weight:normal;font-stretch:normal;font-size:33.51388931px;line-height:1.25;font-family:Sniglet;-inkscape-font-specification:'Sniglet, Normal';font-variant-ligatures:normal;font-variant-caps:normal;font-variant-numeric:normal;font-feature-settings:normal;text-align:start;letter-spacing:2.37860417px;word-spacing:0px;writing-mode:lr-tb;text-anchor:start;fill:#ffffff;fill-opacity:1;stroke:#ff0000;stroke-width:2;stroke-miterlimit:4;stroke-dasharray:none;stroke-opacity:1"
       d="m 137.07335,135.64866 q 1.25606,1.3453 1.8155,2.65806 0.55944,1.31277 0.77151,2.33038 0.21745,1.21295 0.10313,2.27981 1.57594,0.22677 2.69206,0.66746 1.12633,0.39442 1.85956,0.92042 0.73323,0.526 1.12986,1.14753 0.40686,0.57526 0.61837,1.1559 0.44643,1.38488 -0.0142,3.03052 -0.40463,1.17261 -1.07728,1.80065 -0.65462,0.65628 -1.45886,0.8912 -0.78621,0.26318 -1.6962,0.20779 -0.89977,-0.10168 -1.7869,-0.37045 -2.05193,-0.59887 -4.44697,-2.17149 0.7362,0.84216 1.13041,1.58451 0.39422,0.74234 0.539,1.40532 0.14478,0.66298 0.11467,1.23879 -0.0481,0.54756 -0.22491,1.01816 -0.36616,1.10831 -1.3598,1.98093 -1.28637,1.0992 -2.54319,1.18561 -1.27485,0.0582 -2.24431,-0.27733 -1.15459,-0.37638 -2.15044,-1.25162 -2.32106,-2.0174 -3.73213,-3.97939 -1.42909,-1.99025 -2.26138,-3.60598 -0.94827,-1.85976 -1.4157,-3.58905 -0.45666,-1.3386 -0.48899,-2.51066 -0.0323,-1.17206 0.19257,-2.19023 0.25316,-1.03619 0.70705,-1.88243 0.45389,-0.84623 0.98769,-1.50493 1.2678,-1.56441 3.15823,-2.65152 1.24307,-0.79326 2.39413,-1.17 1.13304,-0.40498 2.14823,-0.49624 1.02541,-0.13753 1.89693,-0.0178 0.88174,0.0734 1.60178,0.32955 1.67147,0.56337 3.04054,1.83655 z m -6.41219,6.83511 q -0.48028,0.30649 -0.61318,0.90813 -0.10464,0.58361 0.24032,0.99958 0.4351,0.55723 0.86184,0.60295 0.455,0.0277 0.93528,-0.27879 0.48027,-0.30648 0.61075,-0.78731 0.13048,-0.48083 -0.176,-0.96111 -0.28846,-0.45202 -0.80535,-0.63901 -0.51688,-0.18698 -1.05366,0.15556 z" />
  </g>
</svg>
