<?xml version="1.0" encoding="UTF-8" standalone="no"?>
<!-- Created with Inkscape (http://www.inkscape.org/) -->

<svg
   width="1002.8795mm"
   height="1024.2867mm"
   viewBox="0 0 1002.8795 1024.2867"
   version="1.1"
   id="svg5"
   inkscape:version="1.2.2 (b0a8486541, 2022-12-01)"
   sodipodi:docname="grave.svg"
   inkscape:export-filename="grave.png"
   inkscape:export-xdpi="96"
   inkscape:export-ydpi="96"
   xmlns:inkscape="http://www.inkscape.org/namespaces/inkscape"
   xmlns:sodipodi="http://sodipodi.sourceforge.net/DTD/sodipodi-0.dtd"
   xmlns="http://www.w3.org/2000/svg"
   xmlns:svg="http://www.w3.org/2000/svg">
  <sodipodi:namedview
     id="namedview7"
     pagecolor="#ffffff"
     bordercolor="#000000"
     borderopacity="0.25"
     inkscape:showpageshadow="2"
     inkscape:pageopacity="0.0"
     inkscape:pagecheckerboard="0"
     inkscape:deskcolor="#d1d1d1"
     inkscape:document-units="mm"
     showgrid="false"
     inkscape:zoom="0.093428206"
     inkscape:cx="-48.165326"
     inkscape:cy="2065.7573"
     inkscape:window-width="1920"
     inkscape:window-height="1011"
     inkscape:window-x="0"
     inkscape:window-y="32"
     inkscape:window-maximized="1"
     inkscape:current-layer="layer1" />
  <defs
     id="defs2">
    <rect
       x="327.86905"
       y="286.97601"
       width="161.12354"
       height="115.29271"
       id="rect4191" />
  </defs>
  <g
     inkscape:label="Warstwa 1"
     inkscape:groupmode="layer"
     id="layer1"
     transform="translate(-32.862816,-59.559246)">
    <g
       id="g11519"
       transform="matrix(6.9932019,0,0,6.9932019,-196.9535,-356.95057)">
      <rect
         style="fill:#dadada;fill-opacity:1;stroke:#ffffff;stroke-width:0.529167;stroke-linecap:round;stroke-dasharray:none;stroke-opacity:1"
         id="rect10518"
         width="139.82832"
         height="142.76518"
         x="34.606773"
         y="60.669357" />
      <path
         style="fill:#000000;fill-opacity:1;stroke:none;stroke-width:2.34888;stroke-linecap:round;stroke-dasharray:none;stroke-opacity:1"
         d="m 140.18771,150.18458 -10.45031,-9.94066 12.20856,0.31837 -26.24312,-6.34919 22.61065,-1.97456 -18.778,-3.82163 22.96396,-4.05787 -13.07921,-3.3991 17.47649,-5.45733 -7.755,-2.55583 15.44978,-4.88204 -8.73456,-2.71813 17.87889,-3.05053 -8.72666,-2.996155 15.36672,-1.45742 -8.55601,15.445215 9.63064,-6.41476 -5.4477,11.39982 8.1849,-2.29294 -14.56476,16.38966 10.98623,-5.91399 -5.95775,13.12209 11.16366,-3.51847 -7.48562,10.83031 6.88295,-0.25092 -0.84743,12.0147 -33.82022,-3.08739 -6.68031,-1.17913 z"
         id="path9584" />
      <path
         style="fill:#000000;fill-opacity:1;stroke:none;stroke-width:3.72324;stroke-linecap:round;stroke-dasharray:none;stroke-opacity:1"
         d="m 89.679334,147.08572 16.564936,-15.7571 -19.351976,0.50466 41.598376,-10.06419 -35.840486,-3.12991 29.765286,-6.05773 -36.400516,-6.43219 20.732056,-5.38797 -27.702246,-8.6505 12.29256,-4.051275 -24.48968,-7.738592 13.84529,-4.308563 -28.3401,-4.835442 13.83275,-4.749251 -24.35801,-2.310183 13.56225,24.482459 -15.26566,-10.16813 8.63522,18.070022 -12.974007,-3.634569 23.086827,25.979504 -17.41444,-9.37436 9.44371,20.80003 -17.695687,-5.57719 11.865577,17.1673 -10.910277,-0.39775 1.34327,19.04469 53.608967,-4.89387 10.58906,-1.86905 z"
         id="path9551" />
      <path
         id="path8562"
         style="fill:#dadada;fill-opacity:1;stroke:#000000;stroke-width:2;stroke-linecap:round;stroke-dasharray:none;stroke-opacity:1"
         d="m 101.96587,143.27239 c -25.802938,-0.0182 -36.805656,8.93299 -55.309286,13.33821 H 35.210771 v 44.76212 H 171.54353 v -44.69081 l 0.17622,-0.002 c -0.0597,-0.0184 -0.11663,-0.0354 -0.17622,-0.0537 v -0.0155 h -0.0517 C 139.2746,146.68528 117.82312,143.28369 101.96584,143.2725 Z" />
      <path
         id="path9642"
         style="fill:#080808;fill-opacity:1;stroke:#000000;stroke-width:1.79736;stroke-linecap:round;stroke-dasharray:none;stroke-opacity:1"
         d="m 104.02075,154.29556 c -25.52586,-0.0149 -36.410424,7.29279 -54.715352,10.88917 H 37.982497 v 36.54332 H 172.85125 v -36.48511 l 0.17432,-0.002 c -0.0591,-0.0151 -0.11535,-0.0289 -0.17432,-0.0439 v -0.0127 h -0.0511 c -31.87126,-8.10301 -53.09239,-10.88003 -68.77938,-10.88917 z" />
      <path
         id="path9644"
         style="fill:#dadada;fill-opacity:1;stroke:#000000;stroke-width:1.50806;stroke-linecap:round;stroke-dasharray:none;stroke-opacity:1"
         d="m 104.08874,168.58997 c -25.605218,-0.0104 -36.52362,5.11819 -54.885456,7.64219 H 37.845182 v 25.64667 H 173.13322 v -25.60582 l 0.17486,-9.9e-4 c -0.0593,-0.0106 -0.1157,-0.0203 -0.17486,-0.0308 v -0.009 h -0.0512 c -31.97033,-5.68682 -53.25744,-7.63578 -68.9932,-7.6422 z" />
      <path
         id="path9646"
         style="fill:#000000;fill-opacity:1;stroke:#000000;stroke-width:1.05982;stroke-linecap:round;stroke-dasharray:none;stroke-opacity:1"
         d="m 104.96174,185.93617 c -26.023828,-0.005 -37.120731,2.48716 -55.782758,3.71368 H 37.635191 v 12.46287 H 175.13501 v -12.44301 l 0.17768,-4.8e-4 c -0.0602,-0.005 -0.11749,-0.01 -0.17768,-0.0149 v -0.004 h -0.052 c -32.49299,-2.76347 -54.12812,-3.71056 -70.12114,-3.71369 z" />
      <g
         id="g10696">
        <g
           id="g4513"
           transform="matrix(0.67948934,-0.04490182,0.04490182,0.67948934,6.5181264,95.860511)"
           style="stroke:#dadada;stroke-width:0.777076;stroke-dasharray:none;stroke-opacity:1">
          <path
             id="rect4504"
             style="fill:#010101;stroke:#dadada;stroke-width:0.777076;stroke-linecap:round;stroke-dasharray:none;stroke-opacity:1"
             d="m 158.20235,70.994186 h 3.37937 v 76.279554 h -3.37937 z" />
          <path
             id="rect4449"
             style="fill:#010101;fill-opacity:1;stroke:#dadada;stroke-width:0.777076;stroke-linecap:round;stroke-dasharray:none;stroke-opacity:1"
             d="m 150.99751,135.82263 h 18.52874 v 23.66497 c -6.46549,8.20564 -12.66515,8.86989 -18.52874,0 z"
             sodipodi:nodetypes="ccccc" />
          <path
             id="rect4507"
             style="fill:#010101;stroke:#dadada;stroke-width:0.777076;stroke-linecap:round;stroke-dasharray:none;stroke-opacity:1"
             d="m 151.27299,70.566948 h 16.42775 v 2.239074 h -16.42775 z" />
        </g>
        <path
           id="rect3020"
           style="stroke:#dadada;stroke-width:0.529167;stroke-linecap:round;stroke-dasharray:none;stroke-opacity:1"
           d="m 80.022411,144.53863 c 14.371494,-12.07874 26.791749,-9.60773 38.254909,0 v 56.7481 H 80.022411 Z"
           sodipodi:nodetypes="ccccc" />
        <text
           xml:space="preserve"
           transform="matrix(0.2559355,0,0,0.26081432,-0.4338098,73.720316)"
           id="text4189"
           style="font-style:normal;font-variant:normal;font-weight:bold;font-stretch:normal;font-size:20.0357px;font-family:sans-serif;-inkscape-font-specification:'sans-serif Bold';white-space:pre;shape-inside:url(#rect4191);display:inline;fill:#dadada;fill-opacity:1;stroke:none;stroke-width:4.91269;stroke-linecap:round;stroke-dasharray:none;stroke-opacity:1"><tspan
             x="327.86914"
             y="305.20655"
             id="tspan12397">IM WAITING</tspan></text>
      </g>
      <g
         id="g10708">
        <path
           style="fill:#000000;fill-opacity:1;stroke:#dadada;stroke-width:0.544248;stroke-linecap:round;stroke-dasharray:none;stroke-opacity:1"
           d="m 124.82792,111.55505 -2.98807,1.35095 -0.47002,3.62179 2.85579,-2.70441 z"
           id="path8623"
           sodipodi:nodetypes="ccccc" />
        <path
           style="fill:#000000;fill-opacity:1;stroke:#dadada;stroke-width:0.544248;stroke-linecap:round;stroke-dasharray:none;stroke-opacity:1"
           d="m 125.68434,107.3742 2.98807,1.35095 0.47002,3.62179 -2.85579,-2.70441 z"
           id="path8625"
           sodipodi:nodetypes="ccccc" />
        <path
           style="fill:#000000;fill-opacity:1;stroke:#dadada;stroke-width:0.544248;stroke-linecap:round;stroke-dasharray:none;stroke-opacity:1"
           d="m 64.296553,84.929029 1.703846,2.801878 -1.656523,3.254882 -0.830631,-3.844406 z"
           id="path8631"
           sodipodi:nodetypes="ccccc" />
        <path
           id="path6874"
           style="fill:#000000;fill-opacity:1;stroke:#dadada;stroke-width:0.544248;stroke-linecap:round;stroke-dasharray:none;stroke-opacity:1"
           d="m 62.731571,71.353267 7.729761,11.608594 -10.417969,1.90221 -5.16e-4,-0.0155 -0.02377,0.02015 -0.690914,0.12609 0.471289,0.06098 -1.543059,1.314649 -1.207678,3.742924 3.064413,-1.986442 -0.06511,-3.039091 11.980148,1.549776 -2.279965,39.720573 -8.789127,18.81022 -6.796282,59.72627 7.159243,-0.22397 5.402578,-58.24191 13.286011,-27.92491 28.393096,-6.54069 8.36693,4.14859 -6.81871,-6.5872 -27.875292,4.63693 6.152079,-12.931 33.259463,-5.861136 3.04891,3.503662 0.18139,7.522024 -3.55741,0.67179 -1.53531,3.99459 3.99873,-2.29134 1.10225,-2.03036 0.29869,12.36203 1.61386,-17.81286 17.42322,20.02203 -0.70176,2.18695 0.94464,3.81837 1.55908,-3.30316 -1.62057,-2.49339 0.23358,0.26821 -19.98328,-29.24163 -13.44207,1.196309 6.196,-6.726721 11.9109,-1.955953 -1.84588,3.309876 2.08359,3.738273 0.80305,-4.538224 -0.99942,-2.516643 0.1819,-0.02997 -11.72951,-0.597896 -12.22923,9.818522 -21.567673,1.919779 -9.777181,20.924818 1.97094,-32.115349 z m -0.19792,0.09508 -1.524972,1.784387 -0.604097,3.886068 2.714046,-2.443779 z"
           sodipodi:nodetypes="cccccccccccccccccccccccccccccccccccccccccccccccccccccccccc" />
      </g>
      <path
         style="fill:#000000;fill-opacity:1;stroke:#dadada;stroke-width:0.544248;stroke-linecap:round;stroke-dasharray:none;stroke-opacity:1"
         d="m 94.028959,101.86599 c -0.0435,-4.032009 -0.52978,-11.485754 0.91697,-16.500654 l 5.375661,-2.722337 3.1233,1.92913 1.06901,3.452812 -2.481,-2.29417 -1.83837,1.222886 0.9309,4.185546 -0.33843,2.683418 -1.809311,2.171075 0.38832,2.519905 z"
         id="path8401"
         sodipodi:nodetypes="cccccccccccc" />
      <path
         style="fill:#000000;fill-opacity:1;stroke:none;stroke-width:2;stroke-linecap:round;stroke-dasharray:none;stroke-opacity:1"
         d="m 118.63119,66.38912 -16.56494,4.546689 19.35198,-0.145613 -41.598376,2.904003 35.840486,0.903137 -29.765285,1.747951 36.400515,1.855997 -20.73206,1.554694 27.70225,2.496087 -12.29256,1.168993 24.48968,2.232959 -13.84529,1.243226 28.3401,1.395265 -13.83275,1.37039 24.35801,0.666592 -13.56225,-7.064381 15.26566,2.934002 -8.63522,-5.214075 12.97401,1.048748 -23.08683,-7.496353 17.41444,2.704958 -9.44371,-6.001811 17.69569,1.609288 -11.86558,-4.953606 10.91028,0.114769 -1.34327,-5.495312 -53.60897,1.412116 -10.58906,0.539314 z"
         id="path9495" />
      <rect
         style="fill:none;fill-opacity:1;stroke:#000000;stroke-width:5.3;stroke-linecap:round;stroke-dasharray:none;stroke-opacity:1"
         id="rect8497"
         width="138.10777"
         height="141.16893"
         x="35.512817"
         y="62.209244" />
    </g>
  </g>
</svg>
