<?xml version="1.0" encoding="UTF-8" standalone="no"?>
<!-- Created with Inkscape (http://www.inkscape.org/) -->

<svg
   width="1002.8795mm"
   height="1024.2867mm"
   viewBox="0 0 1002.8795 1024.2867"
   version="1.1"
   id="svg5"
   inkscape:version="1.2.2 (b0a8486541, 2022-12-01)"
   sodipodi:docname="grave.svg"
   inkscape:export-filename="grave.png"
   inkscape:export-xdpi="96"
   inkscape:export-ydpi="96"
   xmlns:inkscape="http://www.inkscape.org/namespaces/inkscape"
   xmlns:sodipodi="http://sodipodi.sourceforge.net/DTD/sodipodi-0.dtd"
   xmlns="http://www.w3.org/2000/svg"
   xmlns:svg="http://www.w3.org/2000/svg">
  <sodipodi:namedview
     id="namedview7"
     pagecolor="#ffffff"
     bordercolor="#000000"
     borderopacity="0.25"
     inkscape:showpageshadow="2"
     inkscape:pageopacity="0.0"
     inkscape:pagecheckerboard="0"
     inkscape:deskcolor="#d1d1d1"
     inkscape:document-units="mm"
     showgrid="false"
     inkscape:zoom="0.13212744"
     inkscape:cx="-578.98649"
     inkscape:cy="2331.0828"
     inkscape:window-width="1920"
     inkscape:window-height="1011"
     inkscape:window-x="0"
     inkscape:window-y="32"
     inkscape:window-maximized="1"
     inkscape:current-layer="layer1" />
  <defs
     id="defs2">
    <rect
       x="327.86905"
       y="286.97601"
       width="161.12354"
       height="115.29271"
       id="rect4191" />
  </defs>
  <g
     inkscape:label="Warstwa 1"
     inkscape:groupmode="layer"
     id="layer1"
     transform="translate(-32.862816,-59.559246)">
    <g
       id="g12625">
      <rect
         style="fill:#dadada;fill-opacity:1;stroke:#ffffff;stroke-width:3.70057;stroke-linecap:round;stroke-dasharray:none;stroke-opacity:1"
         id="rect10518"
         width="977.84772"
         height="998.38574"
         x="45.058655"
         y="67.322495" />
      <path
         style="fill:#000000;fill-opacity:1;stroke:none;stroke-width:16.4262;stroke-linecap:round;stroke-dasharray:none;stroke-opacity:1"
         d="m 783.40746,693.32052 -73.08113,-69.51704 85.37693,2.22642 -183.52344,-44.40116 158.12084,-13.8085 -131.31834,-26.72543 160.5916,-28.37751 -91.46555,-23.77059 122.21662,-38.16421 -54.23228,-17.87343 108.04343,-34.14109 -61.08254,-19.00844 125.03069,-21.33297 -61.0273,-20.95272 107.46258,-10.19203 -59.83391,108.01151 67.34904,-44.85971 -38.09689,79.72124 57.23869,-16.03499 -101.85434,114.6162 76.82892,-41.35773 -41.66375,91.76543 78.06977,-24.60537 -52.34849,75.73854 48.13389,-1.75473 -5.9263,84.02122 -236.51161,-21.59074 -46.71675,-8.2459 z"
         id="path9584" />
      <path
         style="fill:#000000;fill-opacity:1;stroke:none;stroke-width:26.0374;stroke-linecap:round;stroke-dasharray:none;stroke-opacity:1"
         d="M 430.19219,671.64957 546.03413,561.45698 410.70186,564.98617 701.6077,494.60526 450.96794,472.71717 659.1226,430.35424 404.56644,385.37264 549.54989,347.69347 355.82249,287.19878 441.78685,258.8674 270.52557,204.74986 367.34848,174.61921 169.16044,140.80399 265.89565,107.59152 95.55517,91.435941 190.39872,262.64672 83.64288,191.53893 144.03072,317.90625 53.300866,292.48897 214.75171,474.16889 92.969014,408.6121 159.01078,554.0709 35.261273,515.06849 118.23965,635.12288 41.941879,632.34134 51.335637,765.5247 426.23397,731.30088 500.2854,718.23024 Z"
         id="path9551" />
      <path
         id="path8562"
         style="fill:#dadada;fill-opacity:1;stroke:#000000;stroke-width:13.9864;stroke-linecap:round;stroke-dasharray:none;stroke-opacity:1"
         d="m 516.11442,644.98218 c -180.44516,-0.12728 -257.38939,62.4702 -386.78901,93.2768 H 49.282531 V 1051.2895 H 1002.685 V 738.75766 l 1.2324,-0.014 c -0.4175,-0.12867 -0.8156,-0.24756 -1.2324,-0.37553 v -0.1084 h -0.3615 C 777.0219,668.84921 627.00737,645.0612 516.11421,644.98295 Z" />
      <path
         id="path9642"
         style="fill:#080808;fill-opacity:1;stroke:#000000;stroke-width:12.5693;stroke-linecap:round;stroke-dasharray:none;stroke-opacity:1"
         d="M 530.48461,722.06943 C 351.97711,721.96523 275.85916,773.06939 147.8491,798.2196 H 68.66577 v 255.5548 H 1011.8302 V 798.62667 l 1.219,-0.014 c -0.4133,-0.1056 -0.8066,-0.20211 -1.219,-0.30701 v -0.0888 h -0.3574 C 788.59068,741.55089 640.18703,722.13062 530.48475,722.06671 Z" />
      <path
         id="path9644"
         style="fill:#dadada;fill-opacity:1;stroke:#000000;stroke-width:10.5462;stroke-linecap:round;stroke-dasharray:none;stroke-opacity:1"
         d="M 530.96007,822.03313 C 351.89762,821.9604 275.54303,857.82566 147.135,875.47651 H 67.705499 V 1054.8288 H 1013.8021 V 875.76218 l 1.2228,-0.007 c -0.4147,-0.0741 -0.8091,-0.14197 -1.2228,-0.2154 v -0.0629 h -0.3581 C 789.86904,835.70785 641.00398,822.07837 530.96063,822.03348 Z" />
      <path
         id="path9646"
         style="fill:#000000;fill-opacity:1;stroke:#000000;stroke-width:7.41154;stroke-linecap:round;stroke-dasharray:none;stroke-opacity:1"
         d="m 537.06514,943.33861 c -181.98988,-0.035 -259.59277,17.39321 -390.10009,25.97051 H 66.236989 v 87.15538 H 1027.801 v -87.01649 l 1.2425,-0.003 c -0.421,-0.035 -0.8216,-0.0699 -1.2425,-0.1042 v -0.028 h -0.3637 C 800.2073,949.9873 648.90847,943.36411 537.06605,943.34222 Z" />
      <g
         id="g10696"
         transform="matrix(6.9932019,0,0,6.9932019,-196.9535,-356.95057)">
        <g
           id="g4513"
           transform="matrix(0.67948934,-0.04490182,0.04490182,0.67948934,6.5181264,95.860511)"
           style="stroke:#dadada;stroke-width:0.777076;stroke-dasharray:none;stroke-opacity:1">
          <path
             id="rect4504"
             style="fill:#010101;stroke:#dadada;stroke-width:0.777076;stroke-linecap:round;stroke-dasharray:none;stroke-opacity:1"
             d="m 158.20235,70.994186 h 3.37937 v 76.279554 h -3.37937 z" />
          <path
             id="rect4449"
             style="fill:#010101;fill-opacity:1;stroke:#dadada;stroke-width:0.777076;stroke-linecap:round;stroke-dasharray:none;stroke-opacity:1"
             d="m 150.99751,135.82263 h 18.52874 v 23.66497 c -6.46549,8.20564 -12.66515,8.86989 -18.52874,0 z"
             sodipodi:nodetypes="ccccc" />
          <path
             id="rect4507"
             style="fill:#010101;stroke:#dadada;stroke-width:0.777076;stroke-linecap:round;stroke-dasharray:none;stroke-opacity:1"
             d="m 151.27299,70.566948 h 16.42775 v 2.239074 h -16.42775 z" />
        </g>
        <path
           id="rect3020"
           style="stroke:#dadada;stroke-width:0.529167;stroke-linecap:round;stroke-dasharray:none;stroke-opacity:1"
           d="m 80.022411,144.53863 c 14.371494,-12.07874 26.791749,-9.60773 38.254909,0 v 56.7481 H 80.022411 Z"
           sodipodi:nodetypes="ccccc" />
        <text
           xml:space="preserve"
           transform="matrix(0.2559355,0,0,0.26081432,-0.4338098,73.720316)"
           id="text4189"
           style="font-style:normal;font-variant:normal;font-weight:bold;font-stretch:normal;font-size:20.0357px;font-family:sans-serif;-inkscape-font-specification:'sans-serif Bold';white-space:pre;shape-inside:url(#rect4191);display:inline;fill:#dadada;fill-opacity:1;stroke:none;stroke-width:4.91269;stroke-linecap:round;stroke-dasharray:none;stroke-opacity:1"><tspan
             x="327.86914"
             y="305.20655"
             id="tspan12652">IM WAITING</tspan></text>
      </g>
      <path
         id="path8623"
         style="fill:#000000;fill-opacity:1;stroke:#dadada;stroke-width:3.80604;stroke-linecap:round;stroke-dasharray:none;stroke-opacity:1"
         d="M 241.74102 142.03742 L 295.79664 223.21851 L 222.94165 236.52105 L 222.50189 236.72104 C 216.60659 238.39507 213.39972 240.77422 210.44474 247.05529 L 201.99926 273.23044 L 223.42948 259.33878 L 222.97421 238.08582 L 251.00764 241.71247 L 247.20736 252.4467 L 253.0163 279.33136 L 264.60061 256.56944 L 255.95514 242.35222 L 306.75359 248.92391 L 290.80935 526.69766 L 229.3454 658.24157 L 181.81755 1075.9194 L 231.88323 1074.3531 L 269.6649 667.0555 L 362.57654 471.77078 L 561.13496 426.03042 L 619.64664 455.0426 L 571.96221 408.97668 L 377.02475 441.40416 L 420.04745 350.97505 L 652.63739 309.98685 L 673.95908 334.48872 L 675.22774 387.09171 L 650.35019 391.78961 L 639.61338 419.72434 L 667.57705 403.70051 L 675.28562 389.5019 L 677.37438 475.95192 L 684.08663 401.86445 L 686.19451 409.80195 L 706.16539 428.71449 L 702.87877 403.38632 L 684.69383 395.1646 L 688.66051 351.38329 L 810.50424 491.4011 L 805.59704 506.69526 L 812.20284 533.39751 L 823.10605 510.29814 L 811.77289 492.86148 L 813.40639 494.73682 L 673.65936 290.24439 L 579.65631 298.61029 L 622.98597 251.56923 L 706.28114 237.89048 L 693.37289 261.03739 L 707.94357 287.17998 L 713.55977 255.4429 L 706.57053 237.84345 L 707.84229 237.63416 L 625.81577 233.45302 L 540.29438 302.11602 L 389.46689 315.54104 L 321.09328 461.87267 L 334.87642 237.2838 L 241.74102 142.03742 z M 240.35713 142.70197 L 229.69266 155.1808 L 225.46811 182.35692 L 244.44783 165.26701 L 240.35713 142.70197 z M 675.99359 423.17633 L 655.09719 432.62381 L 651.81005 457.95198 L 671.78144 439.03944 L 675.99359 423.17633 z " />
      <path
         style="fill:#000000;fill-opacity:1;stroke:#dadada;stroke-width:3.80604;stroke-linecap:round;stroke-dasharray:none;stroke-opacity:1"
         d="m 460.60999,355.41886 c -0.3042,-28.19665 -3.70485,-80.32219 6.41256,-115.3924 l 37.59308,-19.03785 21.84187,13.49079 7.4758,24.14621 -17.35013,-16.04359 -12.85609,8.55189 6.50997,29.27037 -2.36671,18.76568 -12.65288,15.18277 2.7156,17.6222 z"
         id="path8401"
         sodipodi:nodetypes="cccccccccccc" />
      <path
         style="fill:#000000;fill-opacity:1;stroke:none;stroke-width:13.9864;stroke-linecap:round;stroke-dasharray:none;stroke-opacity:1"
         d="m 632.65836,107.32195 -115.84197,31.79591 135.33231,-1.0183 -290.90585,20.30828 250.63976,6.31582 -208.15465,12.22378 254.55615,12.97936 -144.98348,10.87229 193.72743,17.45564 -85.96436,8.175 171.26128,15.61553 -96.82291,8.69413 198.18804,9.75737 -96.73521,9.58342 170.34048,4.66161 -94.84355,-49.40264 106.75584,20.51807 -60.38783,-36.46308 90.72986,7.3341 -161.45086,-52.42351 121.7827,18.91632 -66.04177,-41.97187 123.74953,11.25407 -82.9784,-34.64157 76.2978,0.80261 -9.3938,-38.429829 -374.89831,9.875212 -74.05144,3.771532 z"
         id="path9495" />
      <rect
         style="fill:none;fill-opacity:1;stroke:#000000;stroke-width:37.064;stroke-linecap:round;stroke-dasharray:none;stroke-opacity:1"
         id="rect8497"
         width="965.81555"
         height="987.22284"
         x="51.394802"
         y="78.091232" />
    </g>
  </g>
</svg>
