<?xml version="1.0" encoding="UTF-8" standalone="no"?>
<svg
   xmlns:dc="http://purl.org/dc/elements/1.1/"
   xmlns:cc="http://creativecommons.org/ns#"
   xmlns:rdf="http://www.w3.org/1999/02/22-rdf-syntax-ns#"
   xmlns:svg="http://www.w3.org/2000/svg"
   xmlns="http://www.w3.org/2000/svg"
   xmlns:sodipodi="http://sodipodi.sourceforge.net/DTD/sodipodi-0.dtd"
   xmlns:inkscape="http://www.inkscape.org/namespaces/inkscape"
   width="40cm"
   height="25cm"
   viewBox="0 0 399.99999 250"
   version="1.1"
   id="svg8"
   inkscape:version="1.0.2 (e86c870879, 2021-01-15)"
   sodipodi:docname="love.svg"
   inkscape:export-filename="/home/wsky/Obrazy/love.png"
   inkscape:export-xdpi="25.4"
   inkscape:export-ydpi="25.4">
  <defs
     id="defs2" />
  <sodipodi:namedview
     id="base"
     pagecolor="#ffffff"
     bordercolor="#666666"
     borderopacity="1.0"
     inkscape:pageopacity="0.0"
     inkscape:pageshadow="2"
     inkscape:zoom="0.7"
     inkscape:cx="1547.0494"
     inkscape:cy="1152.8584"
     inkscape:document-units="mm"
     inkscape:current-layer="layer1"
     inkscape:document-rotation="0"
     showgrid="false"
     objecttolerance="1"
     guidetolerance="1"
     inkscape:window-width="1920"
     inkscape:window-height="1016"
     inkscape:window-x="0"
     inkscape:window-y="27"
     inkscape:window-maximized="1"
     fit-margin-top="0"
     fit-margin-left="0"
     fit-margin-right="0"
     fit-margin-bottom="0"
     units="cm" />
  <metadata
     id="metadata5">
    <rdf:RDF>
      <cc:Work
         rdf:about="">
        <dc:format>image/svg+xml</dc:format>
        <dc:type
           rdf:resource="http://purl.org/dc/dcmitype/StillImage" />
        <dc:title></dc:title>
      </cc:Work>
    </rdf:RDF>
  </metadata>
  <g
     inkscape:label="Warstwa 1"
     inkscape:groupmode="layer"
     id="layer1"
     transform="translate(86.696297,17.110508)">
    <rect
       style="fill:#000000;fill-rule:evenodd;stroke-width:0.330881;stroke-miterlimit:4;stroke-dasharray:none"
       id="rect16"
       width="400.14456"
       height="250.07108"
       x="-86.696297"
       y="-17.110508" />
    <g
       id="g849"
       transform="matrix(0.85952026,-0.25262862,0.31302176,0.69368787,-24.350984,92.673423)">
      <path
         style="fill:#ffffff;stroke:none;stroke-width:0.264583px;stroke-linecap:butt;stroke-linejoin:miter;stroke-opacity:1"
         d="m 36.352109,158.82724 c -5.50545,-7.09521 68.827461,-1.73975 107.469871,3.46676 38.64241,5.20651 72.32887,-15.64892 72.32887,-15.64892 0,0 -31.18816,15.31348 -70.00615,9.5848 -38.818,-5.72869 -113.602607,-8.96409 -109.674506,-4.65224 z"
         id="path10"
         sodipodi:nodetypes="czczcc" />
      <path
         style="fill:#ffffff;stroke:none;stroke-width:0.283714px;stroke-linecap:butt;stroke-linejoin:miter;stroke-opacity:1"
         d="m 36.331055,152.09403 -40.106626,-1.9128 0.00385,5.11545 39.493125,1.28873 z"
         id="path14"
         sodipodi:nodetypes="ccccc" />
      <path
         id="rect843"
         style="fill:#ffffff;stroke:none;stroke-width:0.332359"
         d="m 28.906645,179.24206 c -0.82801,1.66851 3.188803,-3.21915 4.285634,-4.76534 10.361769,-14.60688 -3.417737,-34.19272 14.826389,-47.79146 1.408463,-1.04984 -2.514552,0.52135 -3.778778,1.7025 -16.196092,15.13185 -6.140341,32.32976 -15.333245,50.8543 z"
         sodipodi:nodetypes="sssss" />
    </g>
    <g
       id="g868"
       transform="matrix(0.70133999,0,0,0.70133999,47.31043,58.267057)">
      <rect
         style="fill:#ffffff;stroke:none;stroke-width:0.264583"
         id="rect859"
         width="97.5616"
         height="97.5616"
         x="-23.699459"
         y="59.617439"
         transform="rotate(-45)" />
      <circle
         style="fill:#ffffff;stroke:none;stroke-width:0.264583"
         id="path861"
         cx="58.037582"
         cy="21.350664"
         r="49.862698" />
      <circle
         style="fill:#ffffff;stroke:none;stroke-width:0.264583"
         id="circle863"
         cx="130.36052"
         cy="21.350664"
         r="49.862698" />
    </g>
    <g
       id="g894"
       transform="matrix(0.63809368,0,0,0.63809368,53.268171,61.080064)"
       style="fill:#000000">
      <rect
         style="fill:#000000;stroke:none;stroke-width:0.264583"
         id="rect888"
         width="97.5616"
         height="97.5616"
         x="-23.699459"
         y="59.617439"
         transform="rotate(-45)" />
      <circle
         style="fill:#000000;stroke:none;stroke-width:0.264583"
         id="circle890"
         cx="58.037582"
         cy="21.350664"
         r="49.862698" />
      <circle
         style="fill:#000000;stroke:none;stroke-width:0.264583"
         id="circle892"
         cx="130.36052"
         cy="21.350664"
         r="49.862698" />
    </g>
    <g
       id="g902"
       transform="matrix(0.53805658,0,0,0.53805658,62.691575,64.855948)"
       style="fill:#ffffff">
      <rect
         style="fill:#ffffff;stroke:none;stroke-width:0.264583"
         id="rect896"
         width="97.5616"
         height="97.5616"
         x="-23.699459"
         y="59.617439"
         transform="rotate(-45)" />
      <circle
         style="fill:#ffffff;stroke:none;stroke-width:0.264583"
         id="circle898"
         cx="58.037582"
         cy="21.350664"
         r="49.862698" />
      <circle
         style="fill:#ffffff;stroke:none;stroke-width:0.264583"
         id="circle900"
         cx="130.36052"
         cy="21.350664"
         r="49.862698" />
    </g>
    <g
       id="g910"
       transform="matrix(0.4624053,0,0,0.4624053,69.817852,68.448251)"
       style="fill:#1a1a1a">
      <rect
         style="fill:#1a1a1a;stroke:none;stroke-width:0.264583"
         id="rect904"
         width="97.5616"
         height="97.5616"
         x="-23.699459"
         y="59.617439"
         transform="rotate(-45)" />
      <circle
         style="fill:#1a1a1a;stroke:none;stroke-width:0.264583"
         id="circle906"
         cx="58.037582"
         cy="21.350664"
         r="49.862698" />
      <circle
         style="fill:#1a1a1a;stroke:none;stroke-width:0.264583"
         id="circle908"
         cx="130.36052"
         cy="21.350664"
         r="49.862698" />
    </g>
    <g
       id="g918"
       transform="matrix(0.37221144,0,0,0.37221144,78.314028,72.787142)"
       style="fill:#ffffff">
      <rect
         style="fill:#ffffff;stroke:none;stroke-width:0.264583"
         id="rect912"
         width="97.5616"
         height="97.5616"
         x="-23.699459"
         y="59.617439"
         transform="rotate(-45)" />
      <circle
         style="fill:#ffffff;stroke:none;stroke-width:0.264583"
         id="circle914"
         cx="58.037582"
         cy="21.350664"
         r="49.862698" />
      <circle
         style="fill:#ffffff;stroke:none;stroke-width:0.264583"
         id="circle916"
         cx="130.36052"
         cy="21.350664"
         r="49.862698" />
    </g>
    <g
       id="g926"
       transform="matrix(0.30461236,0,0,0.30461236,84.681795,75.409412)"
       style="fill:#000000">
      <rect
         style="fill:#000000;stroke:none;stroke-width:0.264583"
         id="rect920"
         width="97.5616"
         height="97.5616"
         x="-23.699459"
         y="59.617439"
         transform="rotate(-45)" />
      <circle
         style="fill:#000000;stroke:none;stroke-width:0.264583"
         id="circle922"
         cx="58.037582"
         cy="21.350664"
         r="49.862698" />
      <circle
         style="fill:#000000;stroke:none;stroke-width:0.264583"
         id="circle924"
         cx="130.36052"
         cy="21.350664"
         r="49.862698" />
    </g>
    <g
       id="g934"
       transform="matrix(0.22641489,0,0,0.22641489,92.047926,79.049302)"
       style="fill:#ffffff">
      <rect
         style="fill:#ffffff;stroke:none;stroke-width:0.264583"
         id="rect928"
         width="97.5616"
         height="97.5616"
         x="-23.699459"
         y="59.617439"
         transform="rotate(-45)" />
      <circle
         style="fill:#ffffff;stroke:none;stroke-width:0.264583"
         id="circle930"
         cx="58.037582"
         cy="21.350664"
         r="49.862698" />
      <circle
         style="fill:#ffffff;stroke:none;stroke-width:0.264583"
         id="circle932"
         cx="130.36052"
         cy="21.350664"
         r="49.862698" />
    </g>
    <g
       id="g942"
       transform="matrix(0.16796572,0,0,0.16796572,97.553777,81.689828)"
       style="fill:#000000">
      <rect
         style="fill:#000000;stroke:none;stroke-width:0.264583"
         id="rect936"
         width="97.5616"
         height="97.5616"
         x="-23.699459"
         y="59.617439"
         transform="rotate(-45)" />
      <circle
         style="fill:#000000;stroke:none;stroke-width:0.264583"
         id="circle938"
         cx="58.037582"
         cy="21.350664"
         r="49.862698" />
      <circle
         style="fill:#000000;stroke:none;stroke-width:0.264583"
         id="circle940"
         cx="130.36052"
         cy="21.350664"
         r="49.862698" />
    </g>
    <g
       id="g967"
       transform="matrix(0.10428605,0,0,0.10428605,103.55235,84.277136)"
       style="fill:#ffffff">
      <rect
         style="fill:#ffffff;stroke:none;stroke-width:0.264583"
         id="rect961"
         width="97.5616"
         height="97.5616"
         x="-23.699459"
         y="59.617439"
         transform="rotate(-45)" />
      <circle
         style="fill:#ffffff;stroke:none;stroke-width:0.264583"
         id="circle963"
         cx="58.037582"
         cy="21.350664"
         r="49.862698" />
      <circle
         style="fill:#ffffff;stroke:none;stroke-width:0.264583"
         id="circle965"
         cx="130.36052"
         cy="21.350664"
         r="49.862698" />
    </g>
    <g
       id="g975"
       transform="matrix(-0.85952026,-0.25262862,-0.31302176,0.69368787,251.10297,92.673423)">
      <path
         style="fill:#ffffff;stroke:none;stroke-width:0.264583px;stroke-linecap:butt;stroke-linejoin:miter;stroke-opacity:1"
         d="m 36.352109,158.82724 c -5.50545,-7.09521 68.827461,-1.73975 107.469871,3.46676 38.64241,5.20651 72.32887,-15.64892 72.32887,-15.64892 0,0 -31.18816,15.31348 -70.00615,9.5848 -38.818,-5.72869 -113.602607,-8.96409 -109.674506,-4.65224 z"
         id="path969"
         sodipodi:nodetypes="czczcc" />
      <path
         style="fill:#ffffff;stroke:none;stroke-width:0.283714px;stroke-linecap:butt;stroke-linejoin:miter;stroke-opacity:1"
         d="m 36.331055,152.09403 -40.106626,-1.9128 0.00385,5.11545 39.493125,1.28873 z"
         id="path971"
         sodipodi:nodetypes="ccccc" />
      <path
         id="path973"
         style="fill:#ffffff;stroke:none;stroke-width:0.332359"
         d="m 28.906645,179.24206 c -0.82801,1.66851 3.188803,-3.21915 4.285634,-4.76534 10.361769,-14.60688 -3.417737,-34.19272 14.826389,-47.79146 1.408463,-1.04984 -2.514552,0.52135 -3.778778,1.7025 -16.196092,15.13185 -6.140341,32.32976 -15.333245,50.8543 z"
         sodipodi:nodetypes="sssss" />
    </g>
  </g>
</svg>
